<svg xmlns="http://www.w3.org/2000/svg" version="1.1" xmlns:xlink="http://www.w3.org/1999/xlink" xmlns:svgjs="http://svgjs.com/svgjs" width="1440" height="560" preserveAspectRatio="none" viewBox="0 0 1440 560"><g mask="url(&quot;#SvgjsMask2320&quot;)" fill="none"><use xlink:href="#SvgjsG2322" transform="translate(0, 0)" fill="rgba(229, 229, 229, 1)"></use><use xlink:href="#SvgjsG2322" transform="translate(0, 306)" fill="rgba(229, 229, 229, 1)"></use><use xlink:href="#SvgjsG2322" transform="translate(306, 0)" fill="rgba(229, 229, 229, 1)"></use><use xlink:href="#SvgjsG2322" transform="translate(306, 306)" fill="rgba(229, 229, 229, 1)"></use><use xlink:href="#SvgjsG2322" transform="translate(612, 0)" fill="rgba(229, 229, 229, 1)"></use><use xlink:href="#SvgjsG2322" transform="translate(612, 306)" fill="rgba(229, 229, 229, 1)"></use><use xlink:href="#SvgjsG2322" transform="translate(918, 0)" fill="rgba(229, 229, 229, 1)"></use><use xlink:href="#SvgjsG2322" transform="translate(918, 306)" fill="rgba(229, 229, 229, 1)"></use><use xlink:href="#SvgjsG2322" transform="translate(1224, 0)" fill="rgba(229, 229, 229, 1)"></use><use xlink:href="#SvgjsG2322" transform="translate(1224, 306)" fill="rgba(229, 229, 229, 1)"></use></g><defs><mask id="SvgjsMask2320"><rect width="1440" height="560" fill="#ffffff"></rect></mask><g id="SvgjsG2321"><path d="M3.99 13.32l8.27-1.17c2.57-0.36 4.15-2.52 3.82-4.85A4.27 4.27 0 0 0 11.26 3.67a4.26 4.26 0 0 0-4.8-3.64C4.11 0.36 2.47 2.48 2.84 5.04L3.99 13.32z"></path></g><g id="SvgjsG2322"><use xlink:href="#SvgjsG2321" transform="translate(0, 0) scale(0.6)" fill="rgba(229, 229, 229, 1)"></use><use xlink:href="#SvgjsG2321" transform="translate(0, 30.599999999999998) scale(0.6)" fill="rgba(229, 229, 229, 1)"></use><use xlink:href="#SvgjsG2321" transform="translate(0, 61.199999999999996) scale(0.6)" fill="rgba(229, 229, 229, 1)"></use><use xlink:href="#SvgjsG2321" transform="translate(0, 91.8) scale(0.6)" fill="rgba(229, 229, 229, 1)"></use><use xlink:href="#SvgjsG2321" transform="translate(0, 122.39999999999999) scale(0.6)" fill="rgba(229, 229, 229, 1)"></use><use xlink:href="#SvgjsG2321" transform="translate(0, 153) scale(0.6)" fill="rgba(229, 229, 229, 1)"></use><use xlink:href="#SvgjsG2321" transform="translate(0, 183.6) scale(0.6)" fill="rgba(229, 229, 229, 1)"></use><use xlink:href="#SvgjsG2321" transform="translate(0, 214.2) scale(0.6)" fill="rgba(229, 229, 229, 1)"></use><use xlink:href="#SvgjsG2321" transform="translate(0, 244.79999999999998) scale(0.6)" fill="rgba(229, 229, 229, 1)"></use><use xlink:href="#SvgjsG2321" transform="translate(0, 275.4) scale(0.6)" fill="rgba(229, 229, 229, 1)"></use><use xlink:href="#SvgjsG2321" transform="translate(30.599999999999998, 0) scale(0.6)" fill="rgba(229, 229, 229, 1)"></use><use xlink:href="#SvgjsG2321" transform="translate(30.599999999999998, 30.599999999999998) scale(0.6)" fill="rgba(229, 229, 229, 1)"></use><use xlink:href="#SvgjsG2321" transform="translate(30.599999999999998, 61.199999999999996) scale(0.6)" fill="rgba(229, 229, 229, 1)"></use><use xlink:href="#SvgjsG2321" transform="translate(30.599999999999998, 91.8) scale(0.6)" fill="rgba(229, 229, 229, 1)"></use><use xlink:href="#SvgjsG2321" transform="translate(30.599999999999998, 122.39999999999999) scale(0.6)" fill="rgba(229, 229, 229, 1)"></use><use xlink:href="#SvgjsG2321" transform="translate(30.599999999999998, 153) scale(0.6)" fill="rgba(229, 229, 229, 1)"></use><use xlink:href="#SvgjsG2321" transform="translate(30.599999999999998, 183.6) scale(0.6)" fill="rgba(229, 229, 229, 1)"></use><use xlink:href="#SvgjsG2321" transform="translate(30.599999999999998, 214.2) scale(0.6)" fill="rgba(229, 229, 229, 1)"></use><use xlink:href="#SvgjsG2321" transform="translate(30.599999999999998, 244.79999999999998) scale(0.6)" fill="rgba(229, 229, 229, 1)"></use><use xlink:href="#SvgjsG2321" transform="translate(30.599999999999998, 275.4) scale(0.6)" fill="rgba(229, 229, 229, 1)"></use><use xlink:href="#SvgjsG2321" transform="translate(61.199999999999996, 0) scale(0.6)" fill="rgba(229, 229, 229, 1)"></use><use xlink:href="#SvgjsG2321" transform="translate(61.199999999999996, 30.599999999999998) scale(0.6)" fill="rgba(229, 229, 229, 1)"></use><use xlink:href="#SvgjsG2321" transform="translate(61.199999999999996, 61.199999999999996) scale(0.6)" fill="rgba(229, 229, 229, 1)"></use><use xlink:href="#SvgjsG2321" transform="translate(61.199999999999996, 91.8) scale(0.6)" fill="rgba(229, 229, 229, 1)"></use><use xlink:href="#SvgjsG2321" transform="translate(61.199999999999996, 122.39999999999999) scale(0.6)" fill="rgba(229, 229, 229, 1)"></use><use xlink:href="#SvgjsG2321" transform="translate(61.199999999999996, 153) scale(0.6)" fill="rgba(229, 229, 229, 1)"></use><use xlink:href="#SvgjsG2321" transform="translate(61.199999999999996, 183.6) scale(0.6)" fill="rgba(229, 229, 229, 1)"></use><use xlink:href="#SvgjsG2321" transform="translate(61.199999999999996, 214.2) scale(0.6)" fill="rgba(229, 229, 229, 1)"></use><use xlink:href="#SvgjsG2321" transform="translate(61.199999999999996, 244.79999999999998) scale(0.6)" fill="rgba(229, 229, 229, 1)"></use><use xlink:href="#SvgjsG2321" transform="translate(61.199999999999996, 275.4) scale(0.6)" fill="rgba(229, 229, 229, 1)"></use><use xlink:href="#SvgjsG2321" transform="translate(91.8, 0) scale(0.6)" fill="rgba(229, 229, 229, 1)"></use><use xlink:href="#SvgjsG2321" transform="translate(91.8, 30.599999999999998) scale(0.6)" fill="rgba(229, 229, 229, 1)"></use><use xlink:href="#SvgjsG2321" transform="translate(91.8, 61.199999999999996) scale(0.6)" fill="rgba(229, 229, 229, 1)"></use><use xlink:href="#SvgjsG2321" transform="translate(91.8, 91.8) scale(0.6)" fill="rgba(229, 229, 229, 1)"></use><use xlink:href="#SvgjsG2321" transform="translate(91.8, 122.39999999999999) scale(0.6)" fill="rgba(229, 229, 229, 1)"></use><use xlink:href="#SvgjsG2321" transform="translate(91.8, 153) scale(0.6)" fill="rgba(229, 229, 229, 1)"></use><use xlink:href="#SvgjsG2321" transform="translate(91.8, 183.6) scale(0.6)" fill="rgba(229, 229, 229, 1)"></use><use xlink:href="#SvgjsG2321" transform="translate(91.8, 214.2) scale(0.6)" fill="rgba(229, 229, 229, 1)"></use><use xlink:href="#SvgjsG2321" transform="translate(91.8, 244.79999999999998) scale(0.6)" fill="rgba(229, 229, 229, 1)"></use><use xlink:href="#SvgjsG2321" transform="translate(91.8, 275.4) scale(0.6)" fill="rgba(229, 229, 229, 1)"></use><use xlink:href="#SvgjsG2321" transform="translate(122.39999999999999, 0) scale(0.6)" fill="rgba(229, 229, 229, 1)"></use><use xlink:href="#SvgjsG2321" transform="translate(122.39999999999999, 30.599999999999998) scale(0.6)" fill="rgba(229, 229, 229, 1)"></use><use xlink:href="#SvgjsG2321" transform="translate(122.39999999999999, 61.199999999999996) scale(0.6)" fill="rgba(229, 229, 229, 1)"></use><use xlink:href="#SvgjsG2321" transform="translate(122.39999999999999, 91.8) scale(0.6)" fill="rgba(229, 229, 229, 1)"></use><use xlink:href="#SvgjsG2321" transform="translate(122.39999999999999, 122.39999999999999) scale(0.6)" fill="rgba(229, 229, 229, 1)"></use><use xlink:href="#SvgjsG2321" transform="translate(122.39999999999999, 153) scale(0.6)" fill="rgba(229, 229, 229, 1)"></use><use xlink:href="#SvgjsG2321" transform="translate(122.39999999999999, 183.6) scale(0.6)" fill="rgba(229, 229, 229, 1)"></use><use xlink:href="#SvgjsG2321" transform="translate(122.39999999999999, 214.2) scale(0.6)" fill="rgba(229, 229, 229, 1)"></use><use xlink:href="#SvgjsG2321" transform="translate(122.39999999999999, 244.79999999999998) scale(0.6)" fill="rgba(229, 229, 229, 1)"></use><use xlink:href="#SvgjsG2321" transform="translate(122.39999999999999, 275.4) scale(0.6)" fill="rgba(229, 229, 229, 1)"></use><use xlink:href="#SvgjsG2321" transform="translate(153, 0) scale(0.6)" fill="rgba(229, 229, 229, 1)"></use><use xlink:href="#SvgjsG2321" transform="translate(153, 30.599999999999998) scale(0.6)" fill="rgba(229, 229, 229, 1)"></use><use xlink:href="#SvgjsG2321" transform="translate(153, 61.199999999999996) scale(0.6)" fill="rgba(229, 229, 229, 1)"></use><use xlink:href="#SvgjsG2321" transform="translate(153, 91.8) scale(0.6)" fill="rgba(229, 229, 229, 1)"></use><use xlink:href="#SvgjsG2321" transform="translate(153, 122.39999999999999) scale(0.6)" fill="rgba(229, 229, 229, 1)"></use><use xlink:href="#SvgjsG2321" transform="translate(153, 153) scale(0.6)" fill="rgba(229, 229, 229, 1)"></use><use xlink:href="#SvgjsG2321" transform="translate(153, 183.6) scale(0.6)" fill="rgba(229, 229, 229, 1)"></use><use xlink:href="#SvgjsG2321" transform="translate(153, 214.2) scale(0.6)" fill="rgba(229, 229, 229, 1)"></use><use xlink:href="#SvgjsG2321" transform="translate(153, 244.79999999999998) scale(0.6)" fill="rgba(229, 229, 229, 1)"></use><use xlink:href="#SvgjsG2321" transform="translate(153, 275.4) scale(0.6)" fill="rgba(229, 229, 229, 1)"></use><use xlink:href="#SvgjsG2321" transform="translate(183.6, 0) scale(0.6)" fill="rgba(229, 229, 229, 1)"></use><use xlink:href="#SvgjsG2321" transform="translate(183.6, 30.599999999999998) scale(0.6)" fill="rgba(229, 229, 229, 1)"></use><use xlink:href="#SvgjsG2321" transform="translate(183.6, 61.199999999999996) scale(0.6)" fill="rgba(229, 229, 229, 1)"></use><use xlink:href="#SvgjsG2321" transform="translate(183.6, 91.8) scale(0.6)" fill="rgba(229, 229, 229, 1)"></use><use xlink:href="#SvgjsG2321" transform="translate(183.6, 122.39999999999999) scale(0.6)" fill="rgba(229, 229, 229, 1)"></use><use xlink:href="#SvgjsG2321" transform="translate(183.6, 153) scale(0.6)" fill="rgba(229, 229, 229, 1)"></use><use xlink:href="#SvgjsG2321" transform="translate(183.6, 183.6) scale(0.6)" fill="rgba(229, 229, 229, 1)"></use><use xlink:href="#SvgjsG2321" transform="translate(183.6, 214.2) scale(0.6)" fill="rgba(229, 229, 229, 1)"></use><use xlink:href="#SvgjsG2321" transform="translate(183.6, 244.79999999999998) scale(0.6)" fill="rgba(229, 229, 229, 1)"></use><use xlink:href="#SvgjsG2321" transform="translate(183.6, 275.4) scale(0.6)" fill="rgba(229, 229, 229, 1)"></use><use xlink:href="#SvgjsG2321" transform="translate(214.2, 0) scale(0.6)" fill="rgba(229, 229, 229, 1)"></use><use xlink:href="#SvgjsG2321" transform="translate(214.2, 30.599999999999998) scale(0.6)" fill="rgba(229, 229, 229, 1)"></use><use xlink:href="#SvgjsG2321" transform="translate(214.2, 61.199999999999996) scale(0.6)" fill="rgba(229, 229, 229, 1)"></use><use xlink:href="#SvgjsG2321" transform="translate(214.2, 91.8) scale(0.6)" fill="rgba(229, 229, 229, 1)"></use><use xlink:href="#SvgjsG2321" transform="translate(214.2, 122.39999999999999) scale(0.6)" fill="rgba(229, 229, 229, 1)"></use><use xlink:href="#SvgjsG2321" transform="translate(214.2, 153) scale(0.6)" fill="rgba(229, 229, 229, 1)"></use><use xlink:href="#SvgjsG2321" transform="translate(214.2, 183.6) scale(0.6)" fill="rgba(229, 229, 229, 1)"></use><use xlink:href="#SvgjsG2321" transform="translate(214.2, 214.2) scale(0.6)" fill="rgba(229, 229, 229, 1)"></use><use xlink:href="#SvgjsG2321" transform="translate(214.2, 244.79999999999998) scale(0.6)" fill="rgba(229, 229, 229, 1)"></use><use xlink:href="#SvgjsG2321" transform="translate(214.2, 275.4) scale(0.6)" fill="rgba(229, 229, 229, 1)"></use><use xlink:href="#SvgjsG2321" transform="translate(244.79999999999998, 0) scale(0.6)" fill="rgba(229, 229, 229, 1)"></use><use xlink:href="#SvgjsG2321" transform="translate(244.79999999999998, 30.599999999999998) scale(0.6)" fill="rgba(229, 229, 229, 1)"></use><use xlink:href="#SvgjsG2321" transform="translate(244.79999999999998, 61.199999999999996) scale(0.6)" fill="rgba(229, 229, 229, 1)"></use><use xlink:href="#SvgjsG2321" transform="translate(244.79999999999998, 91.8) scale(0.6)" fill="rgba(229, 229, 229, 1)"></use><use xlink:href="#SvgjsG2321" transform="translate(244.79999999999998, 122.39999999999999) scale(0.6)" fill="rgba(229, 229, 229, 1)"></use><use xlink:href="#SvgjsG2321" transform="translate(244.79999999999998, 153) scale(0.6)" fill="rgba(229, 229, 229, 1)"></use><use xlink:href="#SvgjsG2321" transform="translate(244.79999999999998, 183.6) scale(0.6)" fill="rgba(229, 229, 229, 1)"></use><use xlink:href="#SvgjsG2321" transform="translate(244.79999999999998, 214.2) scale(0.6)" fill="rgba(229, 229, 229, 1)"></use><use xlink:href="#SvgjsG2321" transform="translate(244.79999999999998, 244.79999999999998) scale(0.6)" fill="rgba(229, 229, 229, 1)"></use><use xlink:href="#SvgjsG2321" transform="translate(244.79999999999998, 275.4) scale(0.6)" fill="rgba(229, 229, 229, 1)"></use><use xlink:href="#SvgjsG2321" transform="translate(275.4, 0) scale(0.6)" fill="rgba(229, 229, 229, 1)"></use><use xlink:href="#SvgjsG2321" transform="translate(275.4, 30.599999999999998) scale(0.6)" fill="rgba(229, 229, 229, 1)"></use><use xlink:href="#SvgjsG2321" transform="translate(275.4, 61.199999999999996) scale(0.6)" fill="rgba(229, 229, 229, 1)"></use><use xlink:href="#SvgjsG2321" transform="translate(275.4, 91.8) scale(0.6)" fill="rgba(229, 229, 229, 1)"></use><use xlink:href="#SvgjsG2321" transform="translate(275.4, 122.39999999999999) scale(0.6)" fill="rgba(229, 229, 229, 1)"></use><use xlink:href="#SvgjsG2321" transform="translate(275.4, 153) scale(0.6)" fill="rgba(229, 229, 229, 1)"></use><use xlink:href="#SvgjsG2321" transform="translate(275.4, 183.6) scale(0.6)" fill="rgba(229, 229, 229, 1)"></use><use xlink:href="#SvgjsG2321" transform="translate(275.4, 214.2) scale(0.6)" fill="rgba(229, 229, 229, 1)"></use><use xlink:href="#SvgjsG2321" transform="translate(275.4, 244.79999999999998) scale(0.6)" fill="rgba(229, 229, 229, 1)"></use><use xlink:href="#SvgjsG2321" transform="translate(275.4, 275.4) scale(0.6)" fill="rgba(229, 229, 229, 1)"></use></g></defs></svg>