<svg id="svg" version="1.1" xmlns="http://www.w3.org/2000/svg" xmlns:xlink="http://www.w3.org/1999/xlink" width="400" height="400" viewBox="0, 0, 400,400"><g id="svgg"><path id="path0" d="M204.125 23.542 C 199.559 26.067,201.084 32.241,206.276 32.249 C 207.744 32.251,208.737 33.127,209.870 35.422 C 211.120 37.952,211.544 38.421,212.765 38.628 C 215.217 39.042,216.384 41.430,215.344 43.907 C 213.471 48.367,213.721 50.149,216.214 50.104 C 220.081 50.035,223.818 45.303,222.010 42.764 C 221.471 42.008,220.250 38.482,220.250 37.685 C 220.250 37.409,220.129 36.720,219.980 36.154 C 219.832 35.588,219.597 34.675,219.458 34.125 C 218.668 30.989,217.912 30.175,214.929 29.243 C 212.923 28.617,211.974 28.019,211.106 26.834 C 208.913 23.840,206.037 22.484,204.125 23.542 M192.152 26.758 C 189.647 27.645,182.850 32.389,182.588 33.433 C 182.229 34.863,187.441 39.500,189.406 39.500 C 190.529 39.500,191.745 37.531,192.767 34.057 C 193.445 31.752,193.715 31.588,196.143 32.003 C 199.049 32.500,199.805 32.000,199.240 29.955 C 198.388 26.869,195.509 25.570,192.152 26.758 M201.125 33.877 C 200.067 34.298,199.109 34.478,197.875 34.488 C 194.089 34.518,192.384 37.999,194.018 42.366 C 194.660 44.080,195.288 44.162,198.915 43.000 C 203.125 41.651,205.038 42.467,205.760 45.919 C 206.247 48.242,207.334 48.871,209.958 48.346 C 213.715 47.594,215.047 40.802,211.553 40.206 C 210.096 39.957,210.006 39.885,208.252 37.549 C 205.432 33.795,203.644 32.874,201.125 33.877 M176.125 34.960 C 174.791 35.776,174.579 36.511,175.119 38.450 C 175.928 41.356,175.910 41.799,174.917 43.296 C 173.280 45.762,173.109 47.167,174.143 49.625 C 174.530 50.543,174.859 51.964,174.991 53.288 C 175.329 56.676,176.108 57.497,178.984 57.499 C 183.249 57.502,184.275 55.315,181.889 51.305 C 180.137 48.361,180.141 46.771,181.909 43.836 L 182.773 42.401 182.603 40.013 C 182.510 38.700,182.291 37.344,182.116 37.000 C 181.057 34.919,177.933 33.856,176.125 34.960 M247.709 42.197 C 243.158 46.877,240.479 50.794,237.925 56.500 C 235.929 60.958,234.017 69.890,234.382 73.050 C 234.541 74.431,234.507 74.545,233.242 76.800 C 231.668 79.605,227.562 86.501,226.127 88.750 C 225.557 89.644,224.145 91.894,222.991 93.750 C 221.837 95.606,219.925 98.306,218.742 99.750 C 215.089 104.211,215.189 104.038,215.054 106.136 C 214.959 107.616,215.005 107.998,215.280 107.991 C 215.766 107.978,218.192 104.857,220.857 100.814 C 223.259 97.171,223.564 96.925,224.865 97.570 C 229.036 99.638,235.746 98.573,238.559 95.397 C 239.660 94.153,239.571 94.049,236.625 93.161 C 234.142 92.411,232.578 92.199,230.185 92.286 C 227.501 92.384,227.481 92.370,228.375 91.054 C 228.719 90.548,229.000 89.991,229.000 89.817 C 229.000 89.643,229.113 89.500,229.250 89.500 C 229.387 89.500,229.500 89.377,229.500 89.226 C 229.500 89.075,229.707 88.654,229.960 88.289 C 230.213 87.924,230.900 86.725,231.486 85.625 C 232.877 83.014,232.708 83.109,234.419 83.979 C 239.467 86.544,245.229 84.846,249.687 79.481 L 250.814 78.125 249.344 77.921 C 246.807 77.568,239.874 77.912,237.875 78.490 C 235.089 79.296,235.000 79.315,235.000 79.105 C 235.000 78.995,235.366 78.175,235.813 77.284 L 236.625 75.663 239.375 74.364 C 240.887 73.649,243.108 72.606,244.309 72.046 C 248.396 70.138,250.047 68.028,253.609 60.156 C 254.641 57.875,254.612 58.000,254.111 58.000 C 252.723 58.000,246.821 62.427,242.317 66.846 C 239.246 69.860,238.307 70.546,238.984 69.281 C 239.134 68.999,240.420 65.305,241.840 61.072 C 244.239 53.922,246.308 48.674,249.087 42.692 C 250.527 39.592,250.316 39.516,247.709 42.197 M185.750 40.413 C 184.335 40.981,183.934 42.263,184.541 44.287 C 184.799 45.149,184.775 45.318,184.322 45.816 C 182.508 47.807,182.895 50.156,185.483 52.875 C 187.349 54.834,187.674 55.444,187.799 57.222 C 188.149 62.186,194.663 62.341,196.119 57.419 C 196.496 56.143,196.382 55.750,195.634 55.750 C 193.266 55.750,190.428 50.309,191.088 47.034 C 191.950 42.757,189.006 39.106,185.750 40.413 M148.500 41.366 C 148.500 41.430,150.009 44.439,151.854 48.054 C 154.074 52.402,156.030 56.697,157.636 60.750 C 158.972 64.119,160.447 67.706,160.915 68.722 C 161.979 71.034,161.898 71.103,160.088 69.424 C 155.446 65.120,152.405 62.880,148.292 60.739 C 144.843 58.944,144.809 59.005,146.992 63.037 C 150.753 69.985,152.082 71.306,157.250 73.242 C 164.053 75.790,163.911 75.712,165.002 77.500 C 166.153 79.386,166.123 79.416,163.603 78.894 C 160.481 78.249,151.095 78.571,150.316 79.351 C 150.217 79.449,150.809 80.172,151.631 80.958 C 154.980 84.159,157.288 85.309,160.662 85.457 C 163.494 85.581,164.835 85.203,167.742 83.461 C 168.233 83.167,168.338 83.182,168.589 83.581 C 168.746 83.831,170.013 85.774,171.404 87.899 C 173.994 91.853,174.089 92.166,172.620 91.891 C 171.406 91.663,168.781 92.149,165.750 93.164 C 162.257 94.334,162.080 94.525,163.400 95.707 C 166.807 98.760,172.791 99.326,176.935 96.988 L 178.255 96.243 179.268 97.309 C 179.825 97.895,180.977 99.343,181.828 100.526 C 183.792 103.257,186.704 106.500,187.193 106.500 C 187.495 106.500,187.537 106.275,187.409 105.340 C 187.322 104.702,187.250 103.881,187.250 103.515 C 187.250 103.015,186.620 102.182,184.718 100.165 C 181.397 96.643,180.638 95.694,176.990 90.500 C 175.300 88.094,173.852 86.069,173.771 86.000 C 172.297 84.743,166.249 74.701,166.242 73.499 C 166.228 71.222,165.843 68.909,165.005 66.069 C 162.019 55.959,158.948 50.815,151.845 44.025 C 149.282 41.574,148.500 40.953,148.500 41.366 M119.306 47.567 C 117.541 49.388,117.688 50.547,119.774 51.267 C 122.167 52.093,122.750 51.772,122.750 49.626 C 122.750 47.022,120.904 45.919,119.306 47.567 M277.931 47.188 C 276.045 49.272,276.906 52.051,279.268 51.506 C 281.493 50.994,281.750 50.842,281.750 50.044 C 281.750 47.806,279.139 45.853,277.931 47.188 M195.863 47.662 C 194.122 49.540,196.685 54.312,198.737 53.013 C 199.074 52.800,200.352 50.879,201.047 49.539 C 202.077 47.556,197.498 45.897,195.863 47.662 M99.875 49.890 C 99.600 49.953,98.756 50.130,98.000 50.282 C 94.882 50.912,92.442 52.891,89.405 57.254 C 87.225 60.388,87.209 60.502,88.907 60.956 C 89.577 61.135,90.969 61.679,92.000 62.164 C 100.579 66.204,103.096 65.536,113.250 56.524 L 114.125 55.748 112.875 54.616 C 108.831 50.957,103.562 49.041,99.875 49.890 M294.566 50.118 C 291.462 50.996,285.710 54.885,286.083 55.855 C 286.260 56.316,290.982 60.216,293.418 61.912 C 298.493 65.446,300.320 65.534,307.000 62.562 C 308.994 61.675,310.993 60.889,311.444 60.816 C 312.699 60.612,312.660 60.439,310.710 57.601 C 306.710 51.777,304.089 50.117,298.500 49.866 C 296.626 49.782,295.500 49.854,294.566 50.118 M208.498 50.484 C 207.015 50.935,205.957 51.752,203.006 54.727 C 200.513 57.240,199.551 58.035,198.287 58.629 C 196.261 59.581,195.750 60.459,195.750 62.984 C 195.750 65.942,196.759 66.121,200.211 63.777 C 202.920 61.937,203.487 61.822,207.125 62.374 C 208.382 62.565,209.575 61.884,210.170 60.636 C 210.470 60.007,210.944 59.598,211.900 59.146 C 213.569 58.355,214.500 56.316,214.500 53.449 C 214.500 51.210,211.303 49.631,208.498 50.484 M218.355 51.605 C 217.251 52.086,216.738 53.374,216.483 56.305 C 216.167 59.947,216.300 59.788,211.500 62.241 C 208.170 63.942,207.280 66.362,208.850 69.446 C 210.982 73.634,215.491 73.551,217.385 69.290 C 218.587 66.585,218.920 66.138,220.588 65.000 C 223.402 63.079,223.387 63.105,223.299 60.359 C 223.233 58.302,223.313 57.732,223.893 56.097 C 224.684 53.868,224.724 53.162,224.099 52.471 C 223.049 51.311,220.064 50.861,218.355 51.605 M114.962 57.922 C 113.274 59.419,112.977 59.734,110.977 62.140 C 105.414 68.834,104.612 72.135,107.186 77.750 C 108.311 80.206,108.419 81.843,107.624 84.403 C 107.128 85.999,110.626 84.935,113.318 82.671 C 119.862 77.167,121.606 67.699,117.607 59.387 C 116.375 56.826,116.265 56.766,114.962 57.922 M283.319 57.313 C 281.586 59.551,280.213 64.416,280.233 68.250 C 280.270 75.322,282.743 80.244,288.033 83.778 C 289.562 84.800,292.251 85.522,292.250 84.911 C 292.250 84.891,292.087 84.022,291.887 82.979 C 291.480 80.850,291.577 80.306,292.935 77.112 C 295.178 71.836,294.464 69.109,289.079 62.375 C 286.003 58.529,283.846 56.633,283.319 57.313 M119.752 57.873 C 118.923 58.871,122.412 67.825,124.680 70.520 C 126.174 72.295,127.303 72.749,130.236 72.755 C 133.100 72.761,134.162 73.071,135.659 74.334 C 136.925 75.403,137.758 72.723,137.044 69.875 C 135.487 63.663,133.855 61.361,129.357 59.032 C 126.526 57.566,120.600 56.851,119.752 57.873 M272.102 58.329 C 266.627 60.550,263.585 64.461,262.772 70.322 C 262.269 73.955,262.992 75.517,264.533 74.125 C 265.728 73.045,266.827 72.753,269.697 72.751 C 273.678 72.749,275.419 71.296,277.728 66.051 C 279.747 61.462,280.641 58.151,279.974 57.728 C 279.006 57.115,274.188 57.483,272.102 58.329 M181.500 59.321 C 179.222 60.466,178.454 64.265,179.949 67.000 C 181.563 69.955,182.388 70.549,185.710 71.147 C 188.435 71.637,189.284 72.214,190.452 74.367 C 191.632 76.544,193.647 77.335,195.375 76.298 C 196.621 75.550,198.811 75.135,199.761 75.466 C 200.758 75.814,202.167 75.836,202.371 75.507 C 202.453 75.373,202.966 75.144,203.510 74.997 C 206.523 74.186,207.640 67.523,205.098 65.523 C 204.004 64.663,202.658 64.825,200.111 66.125 C 196.914 67.757,196.823 67.738,194.468 65.003 C 193.884 64.325,193.577 64.210,191.718 63.967 C 188.779 63.584,187.907 63.154,185.581 60.943 C 183.418 58.887,182.830 58.653,181.500 59.321 M67.611 70.722 C 67.014 70.993,66.156 71.735,65.528 72.525 C 64.223 74.163,63.590 74.594,61.500 75.270 C 58.927 76.102,58.702 76.480,57.498 82.000 C 57.214 83.306,56.642 85.083,56.227 85.949 C 55.725 86.998,55.529 87.707,55.640 88.074 C 56.676 91.496,62.500 93.915,62.500 90.924 C 62.500 90.016,61.790 87.207,61.481 86.888 C 60.481 85.858,61.669 83.483,63.484 82.880 C 64.943 82.396,65.012 82.321,66.134 80.016 C 67.089 78.055,67.859 77.500,69.629 77.500 C 71.610 77.500,72.805 76.160,72.788 73.957 C 72.765 71.001,70.337 69.483,67.611 70.722 M329.250 70.927 C 325.725 72.215,326.482 77.999,330.175 78.000 C 331.918 78.001,332.767 78.659,333.875 80.867 C 334.841 82.792,334.922 82.877,336.248 83.379 C 338.444 84.209,339.131 85.529,338.345 87.407 C 336.394 92.075,337.347 93.882,340.883 92.220 C 343.551 90.966,344.707 88.638,343.676 86.597 C 343.080 85.419,342.628 83.905,342.002 81.000 C 341.203 77.286,340.642 76.517,338.172 75.755 C 336.545 75.254,336.209 75.028,334.625 73.378 C 332.319 70.975,330.894 70.325,329.250 70.927 M76.625 73.215 C 73.555 75.111,73.800 77.413,77.059 77.305 C 79.546 77.222,79.480 77.170,80.249 79.793 C 81.378 83.644,82.220 84.060,85.187 82.229 C 88.864 79.960,89.190 78.819,86.687 76.971 C 80.990 72.762,78.727 71.917,76.625 73.215 M319.256 73.665 C 317.065 74.432,311.500 78.439,311.500 79.249 C 311.500 80.350,312.184 81.137,314.368 82.550 C 316.928 84.205,317.168 84.255,318.048 83.313 C 318.958 82.336,319.987 80.043,319.996 78.968 C 320.004 78.150,320.754 77.875,322.977 77.875 L 325.125 77.875 325.203 77.197 C 325.526 74.401,322.421 72.558,319.256 73.665 M69.980 79.235 C 69.372 79.639,68.222 80.820,67.424 81.860 C 66.160 83.506,65.828 83.786,64.851 84.032 C 61.276 84.932,63.161 91.000,67.015 91.000 C 68.162 91.000,69.250 90.196,69.250 89.349 C 69.250 86.412,71.418 85.270,74.900 86.375 C 78.257 87.441,78.978 87.117,79.428 84.344 C 79.892 81.488,78.514 79.650,75.700 79.374 C 74.696 79.276,73.496 79.039,73.032 78.847 C 71.800 78.340,71.215 78.414,69.980 79.235 M326.750 79.402 C 326.269 79.612,325.087 79.848,324.125 79.926 C 321.324 80.153,320.500 81.092,320.500 84.053 C 320.501 87.388,321.476 88.003,325.000 86.890 C 328.331 85.838,329.914 86.552,330.499 89.372 C 330.816 90.898,331.101 91.217,332.326 91.415 C 336.556 92.102,338.891 85.699,334.833 84.540 C 334.022 84.308,333.586 83.956,332.863 82.949 C 330.302 79.386,328.792 78.509,326.750 79.402 M90.302 79.917 C 89.099 80.510,88.501 81.396,88.494 82.596 C 88.491 83.162,88.387 84.059,88.264 84.590 C 88.065 85.447,88.138 85.733,88.904 87.127 C 90.087 89.280,90.234 90.767,89.408 92.250 C 87.039 96.503,87.324 97.814,90.691 98.153 C 93.258 98.411,94.497 97.331,94.499 94.833 C 94.500 94.048,94.713 93.068,95.042 92.333 C 95.895 90.432,95.807 88.442,94.801 86.889 C 93.907 85.508,93.824 84.725,94.378 82.898 C 94.882 81.235,94.860 81.071,94.019 80.231 C 93.160 79.372,91.665 79.245,90.302 79.917 M306.063 80.482 C 305.168 81.044,304.967 82.228,305.519 83.671 C 306.004 84.937,305.854 86.442,305.151 87.363 C 303.984 88.894,303.841 90.095,304.571 92.250 C 304.921 93.281,305.263 94.789,305.333 95.601 C 305.555 98.197,306.997 99.235,309.644 98.703 C 311.919 98.246,312.633 96.620,311.458 94.570 C 309.658 91.428,309.700 91.538,309.881 90.464 C 309.977 89.895,310.423 88.725,310.871 87.865 C 313.176 83.443,309.741 78.168,306.063 80.482 M267.098 84.081 C 263.820 89.085,264.203 96.013,267.997 100.334 C 269.086 101.574,268.899 101.662,266.184 101.183 C 263.088 100.638,258.626 100.454,255.875 100.758 C 254.637 100.895,252.350 101.078,250.793 101.164 C 247.651 101.339,247.371 101.528,247.550 103.361 C 247.645 104.326,248.415 104.345,253.000 103.499 C 259.953 102.215,268.481 102.861,273.844 105.078 C 276.950 106.362,278.252 107.307,277.320 107.603 C 274.984 108.344,273.323 112.038,273.081 117.025 C 272.904 120.676,272.925 120.714,274.794 119.997 C 280.092 117.965,282.478 115.371,282.649 111.457 C 282.691 110.486,282.783 109.633,282.854 109.563 C 283.015 109.402,285.509 110.394,287.000 111.213 C 287.619 111.552,288.348 111.953,288.620 112.103 C 289.430 112.548,293.737 115.719,295.679 117.299 C 297.527 118.804,299.827 121.447,301.138 123.570 C 302.273 125.411,303.409 125.369,304.401 123.451 C 305.264 121.780,304.868 120.990,302.350 119.366 C 301.205 118.627,299.111 116.972,297.697 115.687 C 293.002 111.422,291.130 110.208,285.250 107.610 C 283.806 106.972,282.512 106.366,282.375 106.263 C 282.238 106.159,280.663 105.312,278.875 104.380 C 277.087 103.448,275.544 102.613,275.444 102.525 C 275.345 102.436,275.453 101.447,275.685 100.326 C 276.420 96.772,275.468 92.070,273.509 89.580 C 272.562 88.376,268.650 84.134,267.976 83.581 C 267.687 83.343,267.518 83.439,267.098 84.081 M129.500 86.040 C 125.774 90.021,124.805 91.577,124.229 94.507 C 123.876 96.302,124.033 100.882,124.477 101.708 C 124.745 102.207,124.724 102.339,124.332 102.627 C 123.788 103.028,114.123 107.876,111.625 109.001 C 108.496 110.410,106.032 112.141,102.367 115.501 C 101.134 116.632,99.281 118.122,98.250 118.812 C 94.828 121.104,94.533 121.605,95.497 123.493 C 96.600 125.657,97.363 125.607,98.860 123.276 C 99.939 121.593,101.886 119.324,103.551 117.807 C 107.291 114.398,115.253 109.500,117.055 109.500 C 117.134 109.500,117.242 110.428,117.294 111.563 C 117.460 115.136,118.976 117.127,123.028 119.096 C 126.648 120.855,126.610 120.866,126.700 118.000 C 126.836 113.697,125.722 110.024,123.838 108.563 C 123.349 108.185,122.722 107.699,122.444 107.485 C 121.956 107.109,122.001 107.061,123.656 106.194 C 129.641 103.056,138.541 102.023,146.875 103.500 C 148.662 103.816,150.603 104.126,151.188 104.188 L 152.250 104.300 152.250 103.056 C 152.250 101.428,152.095 101.337,149.000 101.161 C 147.556 101.078,145.306 100.899,144.000 100.762 C 140.115 100.356,131.993 101.000,131.137 101.783 C 130.517 102.351,129.500 101.868,129.500 101.006 C 129.500 100.646,130.237 100.508,130.871 100.748 C 131.423 100.958,131.564 100.872,132.210 99.929 C 135.589 94.995,135.910 89.650,133.124 84.688 C 132.241 83.114,132.239 83.114,129.500 86.040 M82.332 85.379 C 81.156 86.607,80.930 87.942,81.488 90.351 C 81.915 92.191,79.335 96.561,77.682 96.796 C 76.400 96.979,77.474 99.722,79.209 100.697 C 81.426 101.943,84.000 100.601,84.000 98.199 C 84.000 96.973,84.511 96.035,86.089 94.361 C 87.876 92.467,88.233 90.599,87.117 88.988 C 86.585 88.221,86.525 87.967,86.742 87.396 C 87.871 84.427,84.654 82.956,82.332 85.379 M313.337 85.390 C 312.689 86.038,312.676 86.201,313.131 88.020 C 313.248 88.488,313.114 88.928,312.646 89.618 C 311.551 91.231,311.962 93.190,313.750 94.875 C 315.076 96.125,315.514 96.917,315.775 98.534 C 316.144 100.827,317.617 102.018,319.619 101.643 C 321.998 101.196,323.697 97.910,321.938 97.161 C 320.927 96.730,320.288 96.041,319.124 94.125 C 318.144 92.511,318.163 92.729,318.664 88.827 C 319.035 85.936,315.240 83.487,313.337 85.390 M74.332 89.864 C 73.064 90.416,72.918 90.972,73.666 92.399 C 75.047 95.036,76.172 95.439,77.298 93.700 C 79.009 91.059,77.140 88.643,74.332 89.864 M323.008 90.307 C 321.474 91.114,321.449 92.956,322.951 94.563 C 324.148 95.844,325.000 95.313,326.535 92.328 C 327.253 90.931,324.654 89.441,323.008 90.307 M64.104 92.605 C 61.578 93.705,61.723 98.293,64.323 99.582 C 64.831 99.833,65.556 100.474,65.935 101.005 C 66.775 102.180,67.069 102.268,69.542 102.077 L 71.492 101.927 73.825 103.338 C 76.456 104.930,76.819 105.009,77.401 104.120 C 78.382 102.623,77.455 100.189,75.506 99.143 C 74.756 98.740,72.952 97.263,71.498 95.862 C 67.874 92.369,66.270 91.662,64.104 92.605 M332.298 93.171 C 331.518 93.446,330.481 94.290,328.548 96.221 C 326.814 97.953,325.377 99.149,324.458 99.624 C 322.491 100.642,321.583 103.036,322.509 104.766 C 322.975 105.638,323.480 105.478,326.875 103.384 C 328.370 102.462,328.382 102.459,330.431 102.617 C 332.782 102.798,333.214 102.646,334.006 101.365 C 334.352 100.805,334.930 100.324,335.558 100.073 C 336.752 99.595,337.203 98.705,337.418 96.400 C 337.696 93.426,335.496 92.039,332.298 93.171 M55.059 93.664 C 53.885 94.242,53.740 96.401,54.793 97.612 C 54.907 97.743,55.000 98.954,55.000 100.302 L 55.000 102.755 56.019 103.440 C 58.158 104.878,58.832 105.620,59.666 107.448 C 61.256 110.935,63.868 111.604,66.146 109.108 C 68.603 106.415,67.903 103.803,64.207 101.875 C 60.911 100.155,60.751 99.988,60.747 98.274 C 60.738 93.901,58.408 92.013,55.059 93.664 M340.827 94.002 C 339.816 94.410,339.037 96.991,339.002 100.053 C 338.997 100.471,337.726 101.371,335.680 102.404 C 332.580 103.969,331.759 105.742,332.885 108.436 C 334.485 112.268,338.355 111.959,340.263 107.847 C 341.155 105.925,341.351 105.687,342.849 104.696 C 344.826 103.391,345.045 102.963,344.850 100.800 C 344.727 99.436,344.800 98.859,345.241 97.692 C 346.409 94.602,344.110 92.680,340.827 94.002 M85.785 101.092 C 83.652 103.096,83.434 103.207,81.069 103.507 C 79.170 103.747,79.098 103.782,77.976 105.001 C 76.633 106.462,76.334 106.502,74.358 105.491 C 70.568 103.553,68.742 104.289,68.759 107.750 C 68.776 111.288,71.233 113.733,74.046 113.012 C 75.285 112.695,76.084 112.826,77.913 113.647 C 79.622 114.413,80.673 113.946,82.014 111.823 C 83.116 110.078,83.432 109.889,86.098 109.376 C 90.713 108.488,92.906 102.625,89.596 100.022 C 88.433 99.107,87.670 99.321,85.785 101.092 M310.430 100.444 C 308.840 101.429,308.266 104.225,309.231 106.279 C 310.457 108.887,310.973 109.233,315.122 110.230 C 316.608 110.587,316.967 110.884,318.024 112.627 C 319.017 114.266,321.270 115.229,321.863 114.269 C 322.242 113.656,324.404 113.235,325.722 113.517 C 328.584 114.131,330.644 112.437,330.935 109.230 C 331.312 105.078,329.650 103.988,325.819 105.875 C 323.473 107.031,323.157 107.003,321.774 105.515 C 320.660 104.318,320.565 104.272,318.672 104.016 C 316.292 103.693,316.092 103.590,313.965 101.592 C 312.147 99.885,311.612 99.711,310.430 100.444 M364.750 110.632 C 361.147 111.630,358.277 114.134,356.288 118.015 L 355.226 120.085 355.963 120.395 C 357.143 120.891,361.953 121.977,364.073 122.226 C 367.590 122.638,368.654 122.082,372.948 117.584 C 376.848 113.499,376.558 114.258,374.688 113.044 C 370.654 110.426,367.902 109.758,364.750 110.632 M29.125 110.985 C 27.588 111.360,22.000 114.929,22.000 115.534 C 22.000 115.634,22.323 115.946,22.718 116.227 C 23.112 116.508,24.545 117.750,25.901 118.986 C 30.844 123.493,33.583 123.645,42.313 119.896 C 43.439 119.412,43.435 119.456,42.486 117.801 C 39.569 112.714,33.893 109.819,29.125 110.985 M48.806 112.139 C 48.130 112.612,48.017 114.176,48.641 114.416 C 49.802 114.861,51.181 113.140,50.376 112.251 C 49.830 111.648,49.537 111.627,48.806 112.139 M45.075 112.550 C 44.394 113.409,44.633 114.500,45.503 114.500 C 46.080 114.500,46.827 113.461,46.706 112.825 C 46.603 112.280,45.443 112.084,45.075 112.550 M347.938 113.520 C 347.058 114.032,347.569 115.388,348.805 115.826 C 349.838 116.192,350.365 114.615,349.500 113.750 C 348.944 113.194,348.587 113.142,347.938 113.520 M351.378 113.741 C 351.164 114.415,351.642 115.213,352.368 115.396 C 353.149 115.592,353.500 115.360,353.500 114.649 C 353.500 113.479,351.705 112.710,351.378 113.741 M46.268 115.909 C 44.896 117.652,47.188 119.416,48.838 117.887 C 49.676 117.110,49.668 116.879,48.769 115.981 C 47.848 115.059,46.956 115.034,46.268 115.909 M349.731 117.231 C 348.880 118.081,348.820 118.510,349.469 119.097 C 351.174 120.640,353.621 118.924,352.232 117.159 C 351.544 116.284,350.652 116.309,349.731 117.231 M42.625 121.709 C 35.308 125.200,32.845 128.344,33.136 133.826 C 33.309 137.089,33.301 137.166,32.647 138.457 C 31.668 140.389,32.547 140.901,35.531 140.137 C 41.791 138.533,45.425 133.202,45.339 125.750 C 45.282 120.843,45.078 120.539,42.625 121.709 M353.917 122.167 C 353.591 122.492,353.746 128.209,354.120 129.675 C 355.144 133.687,357.742 137.189,360.819 138.704 C 364.406 140.470,368.940 140.618,368.024 138.939 C 367.855 138.629,367.499 137.981,367.234 137.500 C 366.842 136.791,366.751 136.125,366.750 133.983 C 366.750 130.206,366.348 129.030,364.406 127.132 C 361.809 124.593,354.806 121.278,353.917 122.167 M47.000 125.438 C 47.001 132.769,48.277 135.538,52.375 137.098 C 54.436 137.883,54.700 138.069,55.551 139.331 L 56.196 140.287 56.696 139.751 C 58.245 138.087,58.209 132.068,56.631 129.186 C 55.137 126.456,52.181 123.835,49.913 123.228 C 49.342 123.075,48.617 122.849,48.301 122.725 C 47.029 122.227,47.000 122.287,47.000 125.438 M349.250 124.547 C 346.397 125.923,344.144 128.525,342.407 132.449 C 341.924 133.542,342.131 138.468,342.725 140.028 C 343.611 142.350,343.984 142.499,345.015 140.942 C 345.721 139.875,346.196 139.484,347.673 138.759 C 351.064 137.092,351.842 135.760,352.239 130.947 C 352.786 124.308,352.227 123.110,349.250 124.547 M219.250 199.125 L 219.250 220.000 221.250 220.000 L 223.250 220.000 223.250 199.125 L 223.250 178.250 221.250 178.250 L 219.250 178.250 219.250 199.125 M309.227 178.538 C 288.426 180.429,285.218 212.204,305.125 219.162 C 309.460 220.678,316.786 220.072,321.018 217.848 C 328.074 214.140,331.521 207.479,331.184 198.202 C 330.715 185.337,321.843 177.391,309.227 178.538 M66.250 179.840 C 66.250 180.377,66.380 180.442,67.688 180.561 C 72.086 180.960,71.875 180.050,71.875 198.625 C 71.875 217.640,71.940 217.366,67.306 217.915 C 66.144 218.053,66.000 218.135,66.000 218.660 L 66.000 219.250 73.125 219.250 L 80.250 219.250 80.250 218.660 C 80.250 218.139,80.105 218.052,79.017 217.924 C 74.647 217.406,74.454 216.570,74.556 198.500 L 74.625 186.125 82.154 202.625 C 87.952 215.333,89.791 219.140,90.154 219.192 C 90.551 219.248,91.716 216.808,97.614 203.567 C 101.457 194.936,104.913 187.200,105.294 186.375 L 105.985 184.875 105.930 200.125 C 105.864 218.431,106.107 217.345,101.942 217.941 C 100.838 218.100,100.612 218.221,100.545 218.690 L 100.465 219.250 108.983 219.250 L 117.500 219.250 117.500 218.660 C 117.500 218.140,117.355 218.052,116.278 217.925 C 112.171 217.439,112.388 218.425,112.310 199.875 C 112.229 180.557,112.135 181.042,116.022 180.603 C 117.367 180.450,117.500 180.382,117.500 179.838 L 117.500 179.241 111.450 179.308 L 105.400 179.375 98.858 194.327 C 95.259 202.550,92.216 209.271,92.095 209.262 C 91.974 209.252,88.790 202.496,85.020 194.247 L 78.166 179.250 72.208 179.250 L 66.250 179.250 66.250 179.840 M129.000 179.871 C 129.000 180.443,129.097 180.501,130.063 180.511 C 131.854 180.529,133.533 181.250,134.115 182.250 C 134.715 183.280,135.047 210.081,134.504 213.585 C 134.043 216.552,133.078 217.528,130.196 217.941 C 129.088 218.100,128.862 218.220,128.795 218.690 L 128.715 219.250 135.858 219.250 L 143.000 219.250 143.000 218.625 C 143.000 218.110,142.879 218.000,142.313 217.999 C 141.176 217.996,139.811 217.519,139.008 216.844 C 137.531 215.601,137.488 215.106,137.560 200.054 L 137.625 186.501 141.978 196.063 C 152.207 218.531,152.549 219.250,152.990 219.250 C 153.314 219.250,155.250 215.143,161.014 202.230 C 165.193 192.869,168.708 185.151,168.826 185.078 C 169.350 184.754,168.910 214.805,168.375 215.875 C 167.788 217.049,166.646 217.697,164.775 217.919 C 163.644 218.053,163.500 218.137,163.500 218.660 L 163.500 219.250 171.875 219.250 L 180.250 219.250 180.250 218.660 C 180.250 218.138,180.105 218.052,179.000 217.922 C 174.945 217.441,175.125 218.307,175.125 199.250 C 175.125 180.063,174.916 181.062,179.028 180.575 C 180.108 180.447,180.250 180.361,180.250 179.836 L 180.250 179.241 174.231 179.308 L 168.213 179.375 161.987 193.625 C 154.743 210.203,155.016 209.599,154.851 209.434 C 154.781 209.364,151.641 202.572,147.873 194.341 L 141.023 179.375 135.011 179.308 L 129.000 179.241 129.000 179.871 M261.750 179.840 C 261.750 180.380,261.879 180.442,263.242 180.566 C 267.562 180.958,267.359 180.096,267.454 198.500 C 267.556 218.302,267.639 217.962,262.688 217.994 C 261.856 217.999,261.750 218.071,261.750 218.625 L 261.750 219.250 270.625 219.250 L 279.500 219.250 279.500 218.661 C 279.500 218.118,279.373 218.060,277.847 217.918 C 273.661 217.527,273.875 218.544,273.875 199.081 C 273.875 179.706,273.601 180.979,277.864 180.580 C 279.372 180.440,279.500 180.382,279.500 179.839 L 279.500 179.250 270.625 179.250 L 261.750 179.250 261.750 179.840 M314.106 180.875 C 323.581 182.883,327.618 198.659,321.863 211.190 C 317.602 220.470,304.960 220.099,300.996 210.577 C 294.519 195.018,301.902 178.290,314.106 180.875 M343.301 260.313 C 340.399 265.123,342.772 273.302,347.945 276.319 C 351.496 278.390,351.857 278.336,352.226 275.686 C 353.106 269.356,351.572 264.679,348.069 263.015 C 346.165 262.110,345.177 261.282,344.738 260.221 C 344.349 259.281,343.906 259.309,343.301 260.313 M32.131 261.491 C 32.027 261.659,32.236 262.330,32.601 263.000 C 33.239 264.172,33.255 264.313,33.191 268.043 L 33.125 271.879 33.966 273.193 C 35.309 275.292,38.465 277.773,42.155 279.632 C 45.093 281.112,45.323 280.833,45.354 275.750 C 45.394 269.355,42.859 264.814,37.877 262.352 C 35.831 261.340,32.529 260.846,32.131 261.491 M55.390 262.522 C 54.719 263.537,54.165 263.864,51.442 264.857 C 48.437 265.952,47.000 269.572,47.000 276.046 C 47.000 279.471,46.946 279.421,49.648 278.493 C 55.879 276.353,59.512 268.924,57.256 262.938 C 56.613 261.231,56.292 261.159,55.390 262.522 M362.745 262.086 C 357.609 263.899,353.878 269.067,353.748 274.550 C 353.604 280.637,353.693 280.680,359.867 277.526 C 365.296 274.752,366.750 272.683,366.750 267.731 C 366.750 264.946,366.898 264.375,368.065 262.673 C 368.907 261.444,365.598 261.079,362.745 262.086 M96.112 277.163 C 94.339 279.076,94.724 280.454,97.534 282.256 C 98.603 282.942,100.777 284.676,102.364 286.110 C 106.005 289.398,108.070 290.852,111.292 292.398 C 115.181 294.264,124.088 298.769,124.411 299.033 C 124.623 299.207,124.607 299.561,124.348 300.423 C 123.596 302.920,124.066 307.912,125.279 310.320 C 126.434 312.614,131.838 318.446,132.386 317.991 C 132.883 317.579,134.154 314.957,134.598 313.429 C 135.971 308.706,133.415 300.875,130.500 300.875 C 129.808 300.875,129.625 300.776,129.625 300.402 C 129.625 299.691,130.344 299.334,131.046 299.697 C 133.219 300.819,140.099 301.258,146.000 300.651 C 148.131 300.431,150.341 300.251,150.911 300.251 C 152.046 300.250,152.253 300.005,152.246 298.667 C 152.241 297.522,151.932 297.162,151.090 297.318 C 150.697 297.391,149.700 297.579,148.875 297.736 C 148.050 297.893,146.813 298.128,146.125 298.258 C 140.234 299.372,131.443 298.626,126.250 296.572 C 122.386 295.044,121.611 294.466,122.679 293.907 C 125.298 292.535,126.750 288.988,126.750 283.960 C 126.750 280.795,126.786 280.823,124.204 281.922 C 119.416 283.961,117.250 286.561,117.250 290.271 C 117.250 292.153,117.149 292.255,115.824 291.715 C 109.553 289.162,102.658 283.810,99.264 278.860 C 97.415 276.163,97.164 276.028,96.112 277.163 M301.950 276.938 C 301.743 277.178,301.114 278.061,300.554 278.899 C 297.727 283.123,290.414 289.010,285.219 291.243 C 282.796 292.285,282.745 292.261,282.649 290.050 C 282.493 286.478,280.377 283.940,276.038 282.124 C 273.023 280.862,273.118 280.784,273.162 284.507 C 273.217 289.134,274.273 291.882,276.617 293.495 C 278.071 294.495,278.076 294.483,275.938 295.546 C 269.358 298.819,260.345 299.621,251.000 297.767 C 248.011 297.174,247.954 297.170,247.729 297.526 C 247.404 298.039,247.452 299.346,247.813 299.788 C 248.691 300.866,262.190 301.262,266.714 300.343 C 268.867 299.905,269.026 299.975,268.179 300.981 C 264.566 305.275,263.858 310.740,266.247 315.903 C 267.503 318.618,267.394 318.621,270.103 315.811 C 275.733 309.971,276.934 306.301,275.362 299.731 C 275.171 298.930,275.928 298.510,288.942 292.205 C 291.819 290.811,294.301 289.036,297.625 285.994 C 298.863 284.862,300.719 283.372,301.750 282.683 C 304.967 280.534,305.258 280.020,304.342 278.092 C 303.655 276.643,302.631 276.148,301.950 276.938 M29.750 279.613 C 29.131 279.937,27.219 281.451,25.500 282.976 C 23.781 284.501,22.291 285.749,22.188 285.750 C 21.352 285.752,24.747 288.499,27.143 289.759 C 32.166 292.402,37.994 290.371,41.904 284.614 C 43.603 282.113,43.633 282.193,40.584 281.035 C 34.976 278.906,31.875 278.499,29.750 279.613 M362.750 279.502 C 361.177 279.757,356.963 280.820,355.932 281.222 L 355.239 281.492 356.029 283.058 C 360.331 291.591,366.883 293.570,374.506 288.638 L 376.280 287.491 373.202 284.229 C 368.713 279.470,367.193 278.783,362.750 279.502 M350.082 282.138 C 348.651 282.765,348.895 284.309,350.535 285.007 C 351.571 285.448,353.103 284.078,352.591 283.169 C 351.840 281.835,351.290 281.609,350.082 282.138 M46.841 283.292 C 45.352 284.014,45.662 286.065,47.281 286.201 C 48.433 286.297,49.677 285.049,49.242 284.234 C 49.031 283.841,47.726 282.955,47.450 283.017 C 47.409 283.026,47.135 283.150,46.841 283.292 M348.041 286.149 C 346.918 286.936,347.718 288.500,349.070 288.161 C 349.795 287.979,350.121 287.266,349.893 286.357 C 349.712 285.636,348.904 285.545,348.041 286.149 M351.873 286.604 C 351.157 287.320,351.126 287.484,351.582 288.109 C 352.105 288.824,353.487 287.985,353.496 286.946 C 353.504 286.110,352.565 285.912,351.873 286.604 M45.087 287.191 C 44.802 287.374,44.663 287.842,44.720 288.432 C 44.822 289.486,46.750 289.654,46.750 288.608 C 46.750 287.706,45.692 286.805,45.087 287.191 M48.550 287.300 C 48.103 287.747,48.187 289.022,48.688 289.402 C 49.326 289.887,50.194 289.822,50.491 289.266 C 51.123 288.085,49.455 286.395,48.550 287.300 M319.250 287.563 C 318.797 287.872,318.227 288.500,317.984 288.957 C 317.101 290.618,316.156 291.307,314.375 291.588 C 312.464 291.889,311.545 292.264,310.752 293.067 C 307.967 295.889,308.061 299.988,310.947 301.482 C 311.787 301.916,312.424 301.607,314.086 299.955 C 315.932 298.120,316.556 297.792,318.715 297.521 C 320.777 297.262,321.372 296.973,321.884 295.982 C 322.612 294.574,323.622 294.539,325.997 295.840 C 329.233 297.613,330.875 296.760,330.875 293.306 C 330.875 289.287,329.544 287.990,325.500 288.070 C 323.763 288.105,323.161 288.011,322.201 287.556 C 320.729 286.859,320.280 286.860,319.250 287.563 M77.750 288.047 C 76.867 288.468,76.113 288.591,74.250 288.618 C 70.334 288.673,68.787 290.104,68.760 293.696 C 68.733 297.207,70.556 298.095,74.041 296.269 C 76.148 295.164,76.892 295.231,78.125 296.634 C 79.062 297.700,79.236 297.788,80.875 298.025 C 83.377 298.386,83.910 298.653,85.924 300.553 C 87.779 302.302,88.070 302.435,89.055 301.986 C 93.224 300.087,90.968 293.151,85.876 292.213 C 83.812 291.833,82.865 291.231,82.000 289.750 C 80.774 287.651,79.583 287.173,77.750 288.047 M335.290 290.840 C 333.513 291.484,332.500 293.086,332.500 295.254 C 332.500 297.253,332.905 297.754,335.718 299.233 C 338.952 300.933,338.944 300.923,339.245 303.829 C 339.580 307.055,340.316 308.000,342.493 308.000 C 345.365 308.000,346.295 306.552,345.224 303.750 C 344.791 302.618,344.726 302.062,344.856 300.605 C 345.038 298.555,344.679 297.856,343.001 297.000 C 342.108 296.545,340.500 294.890,340.500 294.427 C 340.500 291.995,337.605 290.002,335.290 290.840 M61.498 291.563 C 60.586 292.183,60.603 292.158,59.455 294.589 C 58.762 296.054,58.426 296.451,57.135 297.323 C 55.061 298.725,55.017 298.807,55.008 301.250 C 55.002 302.754,54.854 303.760,54.500 304.690 C 53.656 306.910,53.896 307.600,55.725 308.215 C 58.870 309.271,60.407 307.946,60.686 303.936 C 60.849 301.605,61.075 301.322,63.918 299.888 C 66.303 298.685,66.693 298.371,67.146 297.287 C 68.646 293.695,64.515 289.508,61.498 291.563 M215.050 295.468 C 215.156 297.309,215.227 297.513,216.144 298.648 C 216.684 299.315,217.294 300.074,217.500 300.335 C 217.706 300.596,218.463 301.500,219.181 302.343 C 220.785 304.225,224.359 309.827,230.424 319.967 C 234.518 326.811,234.345 326.378,234.392 329.875 C 234.428 332.598,234.610 333.812,235.493 337.250 C 235.617 337.731,235.902 338.856,236.127 339.750 C 237.844 346.563,241.335 352.577,247.222 358.867 C 250.788 362.676,250.859 362.636,248.702 358.031 C 246.271 352.845,244.179 347.543,242.130 341.375 C 240.987 337.938,239.758 334.348,239.398 333.399 C 238.474 330.963,238.623 331.029,242.213 334.655 C 246.053 338.535,249.950 341.567,253.277 343.264 C 254.660 343.969,254.667 343.903,253.490 341.220 C 250.114 333.527,248.577 331.633,243.875 329.380 C 236.007 325.610,236.726 326.069,235.756 324.203 C 234.710 322.190,234.736 322.147,236.631 322.776 C 239.892 323.861,245.184 324.198,249.729 323.610 C 250.930 323.455,250.950 323.515,249.003 321.430 C 244.343 316.440,238.856 315.112,234.030 317.806 C 232.893 318.441,232.723 318.330,231.570 316.208 C 230.363 313.987,229.416 312.303,228.464 310.690 C 228.071 310.023,227.750 309.436,227.750 309.385 C 227.750 309.334,229.016 309.291,230.563 309.289 C 234.002 309.284,238.915 308.149,239.196 307.293 C 239.507 306.345,236.514 304.333,233.232 303.285 C 231.067 302.594,227.062 302.963,224.807 304.063 L 223.740 304.584 223.002 303.877 C 222.596 303.488,221.635 302.116,220.867 300.828 C 219.338 298.266,215.663 293.500,215.216 293.500 C 215.023 293.500,214.971 294.113,215.050 295.468 M185.214 296.938 C 184.184 298.003,182.545 300.000,181.572 301.375 C 180.598 302.750,179.465 304.194,179.052 304.584 L 178.302 305.294 176.338 304.336 L 174.375 303.378 171.000 303.391 C 166.713 303.406,161.953 305.469,162.561 307.048 C 162.899 307.924,169.516 309.786,172.125 309.738 C 172.950 309.723,173.702 309.719,173.796 309.730 C 174.119 309.768,168.571 318.125,168.171 318.204 C 167.951 318.247,167.345 317.991,166.823 317.635 C 162.340 314.572,156.412 315.848,151.414 320.953 C 150.013 322.384,150.047 322.431,152.672 322.739 C 157.893 323.352,162.140 323.251,164.814 322.451 C 167.603 321.617,164.875 325.295,161.750 326.583 C 158.507 327.919,158.559 327.899,156.932 328.481 C 152.126 330.200,150.063 332.407,146.350 339.799 C 145.728 341.038,145.282 342.115,145.358 342.192 C 145.886 342.719,154.645 337.216,157.276 334.704 C 157.468 334.521,158.469 333.640,159.500 332.748 C 160.531 331.855,161.458 331.012,161.559 330.875 C 161.924 330.378,161.738 331.059,161.162 332.329 C 160.038 334.808,158.761 337.900,157.121 342.112 C 155.573 346.087,152.348 352.867,149.646 357.824 C 148.013 360.820,148.259 360.911,151.051 358.341 C 156.837 353.013,161.048 347.160,162.987 341.750 C 163.159 341.269,163.390 340.650,163.500 340.375 C 163.953 339.241,164.251 338.320,164.472 337.375 C 164.600 336.825,164.992 335.418,165.341 334.249 C 165.744 332.901,166.040 331.137,166.151 329.427 L 166.325 326.730 167.704 324.552 C 169.330 321.985,175.131 313.583,177.492 310.375 C 178.403 309.137,179.532 307.564,180.001 306.879 C 180.471 306.194,182.294 304.077,184.052 302.174 C 186.560 299.462,187.250 298.566,187.250 298.018 C 187.250 297.634,187.322 296.798,187.409 296.160 C 187.624 294.592,187.406 294.669,185.214 296.938 M322.550 296.800 C 321.685 297.665,322.483 301.037,323.675 301.551 C 325.028 302.135,326.395 303.213,328.496 305.353 C 331.571 308.485,333.623 309.332,335.864 308.396 C 338.236 307.405,337.984 302.511,335.506 301.437 C 334.950 301.197,334.325 300.650,333.997 300.120 C 333.264 298.933,332.734 298.764,330.285 298.932 L 328.241 299.072 326.137 297.786 C 324.024 296.495,323.107 296.243,322.550 296.800 M75.796 297.130 C 75.339 297.328,74.664 297.704,74.296 297.966 C 72.313 299.372,71.790 299.531,69.373 299.459 C 66.866 299.384,66.513 299.517,65.858 300.783 C 65.646 301.192,65.042 301.679,64.386 301.969 C 61.856 303.088,61.482 307.723,63.832 308.838 C 66.216 309.969,68.142 309.178,71.625 305.637 C 73.143 304.093,74.578 302.878,75.279 302.541 C 77.005 301.713,77.750 300.535,77.750 298.635 C 77.750 298.019,76.996 296.701,76.678 296.760 C 76.649 296.765,76.252 296.932,75.796 297.130 M318.099 299.932 C 317.215 300.089,315.997 301.560,315.850 302.646 C 315.598 304.514,315.486 304.747,314.103 306.297 C 311.900 308.766,311.472 310.386,312.625 311.897 C 313.336 312.829,313.364 313.024,312.954 314.157 C 312.571 315.217,312.941 316.078,314.020 316.635 C 316.194 317.760,319.033 315.275,318.653 312.581 C 318.569 311.986,318.429 310.996,318.343 310.380 C 318.077 308.483,319.945 305.437,322.038 304.355 C 324.266 303.203,320.907 299.432,318.099 299.932 M78.988 301.063 C 77.179 302.282,76.602 304.287,77.884 304.896 C 79.412 305.621,81.595 308.781,81.556 310.210 C 81.545 310.576,81.459 311.726,81.364 312.767 C 81.089 315.759,82.212 317.249,84.783 317.308 C 86.819 317.354,87.367 316.333,86.625 313.874 C 86.530 313.559,86.651 313.182,86.951 312.860 C 88.435 311.268,88.033 309.265,85.744 306.845 C 84.354 305.376,84.000 304.653,84.000 303.284 C 84.000 301.032,81.004 299.705,78.988 301.063 M306.823 303.118 C 305.823 303.553,305.250 304.827,305.250 306.617 C 305.250 307.335,305.082 308.261,304.876 308.673 C 303.833 310.763,303.912 312.372,305.147 314.238 C 305.857 315.312,306.023 317.023,305.509 317.983 C 303.821 321.137,308.155 322.960,310.717 320.173 C 311.686 319.120,311.941 315.693,311.140 314.481 C 309.491 311.981,309.499 310.300,311.175 307.500 C 313.157 304.190,310.503 301.518,306.823 303.118 M89.672 303.490 C 87.577 304.160,87.376 305.408,88.882 308.401 C 90.407 311.434,90.338 312.344,88.354 315.373 C 88.042 315.849,88.018 316.149,88.232 316.919 C 88.378 317.445,88.498 318.364,88.499 318.962 C 88.501 321.040,91.147 322.737,93.179 321.965 C 94.580 321.433,94.878 320.636,94.389 318.729 C 93.836 316.571,93.895 315.994,94.808 314.615 C 95.812 313.100,95.898 311.352,95.073 309.250 C 94.777 308.494,94.490 307.167,94.438 306.301 C 94.288 303.846,92.274 302.658,89.672 303.490 M323.054 306.868 C 321.007 308.591,321.675 311.474,324.125 311.491 C 326.255 311.506,327.326 310.125,326.250 308.750 C 325.981 308.406,325.759 308.001,325.756 307.849 C 325.730 306.601,324.082 306.003,323.054 306.868 M74.878 307.313 C 73.369 309.461,73.158 309.905,73.220 310.806 C 73.360 312.841,78.000 312.139,78.000 310.083 C 78.000 307.949,75.802 305.998,74.878 307.313 M337.664 309.207 C 337.064 309.870,337.306 311.608,338.345 314.093 C 339.175 316.078,337.961 318.250,336.022 318.250 C 335.350 318.250,334.384 319.337,333.987 320.539 C 333.393 322.340,332.067 323.500,330.601 323.501 C 327.622 323.503,326.045 326.358,327.547 329.031 C 329.021 331.652,332.144 331.394,334.377 328.465 C 335.450 327.059,336.214 326.488,337.625 326.038 C 340.637 325.079,341.070 324.576,341.868 321.125 C 342.090 320.163,342.439 318.663,342.644 317.793 C 342.848 316.923,343.305 315.657,343.660 314.979 C 344.520 313.333,344.337 312.324,342.922 310.909 C 341.058 309.046,338.546 308.233,337.664 309.207 M59.115 309.841 C 56.329 311.139,55.064 313.468,56.080 315.432 C 56.932 317.081,57.148 317.755,57.746 320.625 C 58.493 324.210,59.208 325.578,60.561 326.006 C 63.177 326.834,64.169 327.429,65.277 328.835 C 67.691 331.899,70.493 332.207,72.202 329.595 C 73.867 327.049,72.165 324.002,69.076 324.000 C 67.668 324.000,66.909 323.306,65.780 320.985 C 64.913 319.204,64.825 319.111,63.701 318.802 C 61.300 318.141,60.830 316.802,61.875 313.601 C 63.175 309.618,62.263 308.376,59.115 309.841 M331.198 310.590 C 330.963 310.769,330.650 311.457,330.501 312.119 C 329.804 315.232,328.474 315.816,324.757 314.642 C 321.287 313.546,320.500 314.112,320.500 317.703 C 320.500 320.576,321.625 321.740,324.409 321.746 C 325.276 321.748,326.254 321.912,326.659 322.123 C 328.291 322.975,329.910 322.275,331.884 319.864 C 333.665 317.691,334.429 317.000,335.052 317.000 C 337.071 317.000,337.630 313.434,335.908 311.539 C 334.789 310.307,332.245 309.795,331.198 310.590 M65.181 311.115 C 62.736 312.390,62.050 316.926,64.230 317.403 C 65.745 317.734,66.063 317.962,67.330 319.625 C 69.676 322.705,71.496 323.627,73.250 322.625 C 73.625 322.411,74.585 322.264,75.651 322.259 C 78.852 322.243,80.372 319.455,79.049 316.026 C 78.391 314.320,78.174 314.275,75.031 315.196 C 71.699 316.173,71.963 316.172,70.871 315.213 C 69.791 314.265,69.250 313.285,69.250 312.277 C 69.250 310.889,66.901 310.218,65.181 311.115 M107.500 316.570 C 107.500 316.647,107.677 317.402,107.894 318.247 C 108.403 320.233,107.999 322.713,106.856 324.625 C 104.132 329.181,107.252 336.837,114.447 343.250 C 116.237 344.845,116.280 344.838,117.346 342.740 C 122.072 333.437,119.486 322.425,111.433 317.555 C 110.229 316.828,107.500 316.144,107.500 316.570 M289.508 316.981 C 281.248 320.329,277.720 332.519,282.227 342.135 C 283.589 345.043,283.632 345.044,286.359 342.229 C 293.852 334.493,295.486 329.943,292.817 324.250 C 291.874 322.237,291.620 319.920,292.084 317.563 L 292.294 316.500 291.459 316.514 C 291.001 316.522,290.122 316.732,289.508 316.981 M315.996 318.071 C 315.517 318.384,314.693 318.862,314.165 319.133 C 310.771 320.872,310.754 322.310,314.097 324.810 C 319.356 328.744,322.661 329.333,324.555 326.673 C 326.120 324.475,325.084 323.119,322.297 323.718 C 320.840 324.031,320.132 323.653,319.934 322.455 C 319.320 318.751,317.703 316.951,315.996 318.071 M81.614 318.762 C 81.359 319.044,80.802 320.310,80.376 321.575 C 79.439 324.361,79.146 324.575,76.830 324.176 C 74.442 323.766,73.875 324.624,75.097 326.799 C 76.862 329.942,80.241 329.491,85.688 325.385 C 89.206 322.733,89.080 321.633,84.986 319.242 C 83.078 318.127,82.290 318.015,81.614 318.762 M191.972 325.418 C 191.613 325.641,190.842 326.598,190.258 327.544 C 188.896 329.751,188.253 330.098,184.343 330.739 C 179.868 331.471,177.545 338.112,180.592 341.461 C 182.210 343.240,183.274 343.071,185.634 340.657 C 187.753 338.488,188.967 337.875,191.618 337.630 C 193.712 337.438,194.148 337.170,195.804 335.060 C 196.611 334.033,197.347 334.084,199.848 335.342 C 204.632 337.748,206.831 336.520,206.441 331.661 C 206.263 329.441,204.971 326.750,204.084 326.750 C 203.897 326.750,203.237 326.511,202.616 326.219 C 201.605 325.744,201.371 325.721,200.385 325.997 C 198.916 326.409,196.259 326.045,195.549 325.335 C 195.079 324.865,192.777 324.919,191.972 325.418 M135.180 327.606 C 134.064 328.592,133.417 328.750,130.485 328.750 C 125.896 328.750,124.052 330.492,121.361 337.375 C 120.011 340.828,119.333 343.433,119.692 343.792 C 120.967 345.067,127.844 343.725,130.875 341.609 C 135.404 338.448,138.204 332.071,136.987 327.688 C 136.669 326.544,136.396 326.532,135.180 327.606 M262.989 326.938 C 262.983 327.041,262.878 327.631,262.756 328.250 C 261.637 333.905,265.981 341.003,271.941 343.260 C 274.896 344.379,280.250 344.463,280.250 343.391 C 280.250 340.913,276.989 333.194,274.976 330.907 C 273.511 329.243,272.616 328.915,269.117 328.759 C 266.126 328.626,266.101 328.619,264.804 327.688 C 263.530 326.772,263.011 326.558,262.989 326.938 M212.003 329.402 C 209.544 330.062,208.265 331.888,208.255 334.754 C 208.247 337.337,208.638 337.834,212.155 339.706 C 216.138 341.826,216.178 341.869,216.361 344.213 C 216.760 349.320,217.377 350.250,220.366 350.250 C 224.092 350.250,225.134 349.078,224.038 346.119 C 223.491 344.644,223.389 343.946,223.377 341.594 C 223.361 338.456,223.346 338.424,221.418 337.220 C 219.329 335.915,218.776 335.265,217.490 332.598 C 215.870 329.239,214.842 328.640,212.003 329.402 M196.294 336.467 C 194.820 337.402,195.835 341.893,197.697 342.671 C 199.274 343.330,200.588 344.383,203.552 347.361 C 208.131 351.960,212.415 352.806,214.150 349.453 C 215.197 347.427,213.827 343.103,211.940 342.480 C 211.193 342.234,210.738 341.845,210.156 340.958 C 209.132 339.396,208.489 339.144,206.197 339.404 C 203.720 339.684,203.395 339.619,201.308 338.419 C 197.363 336.151,197.010 336.014,196.294 336.467 M96.617 337.471 C 95.925 337.720,94.346 338.381,93.107 338.938 C 91.868 339.496,90.100 340.216,89.177 340.538 C 87.214 341.223,87.245 341.124,88.409 342.950 C 92.179 348.860,94.815 350.863,99.902 351.682 C 104.642 352.444,107.404 351.397,113.497 346.530 L 114.119 346.033 113.497 345.364 C 111.564 343.283,105.397 338.761,102.916 337.606 C 101.287 336.847,98.513 336.788,96.617 337.471 M297.734 337.237 C 295.829 337.815,291.250 341.039,286.563 345.103 C 285.730 345.824,285.841 346.081,287.627 347.563 C 292.205 351.363,295.998 352.494,300.875 351.512 C 305.397 350.603,307.210 349.156,311.162 343.301 C 311.931 342.161,312.519 341.204,312.468 341.175 C 312.417 341.146,311.644 340.877,310.750 340.577 C 309.856 340.278,308.056 339.531,306.750 338.917 C 302.905 337.112,299.958 336.563,297.734 337.237 M189.427 341.272 C 188.214 342.272,187.750 343.201,187.750 344.629 C 187.750 346.086,187.516 346.525,185.751 348.380 C 183.082 351.184,182.556 353.327,184.030 355.380 C 184.737 356.364,184.784 356.542,184.530 357.271 C 182.987 361.697,188.694 362.904,190.938 358.625 C 191.389 357.766,191.434 355.259,191.019 354.171 C 190.147 351.888,192.802 346.984,195.493 345.907 C 196.047 345.685,196.500 345.451,196.500 345.386 C 196.500 341.958,191.865 339.262,189.427 341.272 M176.875 344.496 C 175.514 345.170,175.239 345.713,174.994 348.220 C 174.868 349.502,174.523 351.027,174.141 351.985 C 173.176 354.408,173.268 355.512,174.621 357.761 C 175.887 359.867,175.963 360.453,175.244 362.601 C 174.252 365.567,175.076 366.875,177.938 366.875 C 180.758 366.875,182.556 365.224,182.495 362.691 C 182.481 362.105,182.547 361.031,182.642 360.306 C 182.775 359.291,182.727 358.887,182.433 358.556 C 180.133 355.964,180.047 353.508,182.127 349.858 C 183.434 347.564,183.550 346.566,182.648 345.382 C 181.595 344.002,178.753 343.565,176.875 344.496 M197.312 348.508 C 195.622 349.187,194.685 352.565,195.821 353.886 C 197.395 355.716,202.070 354.220,201.056 352.211 C 199.290 348.710,198.573 348.001,197.312 348.508 M120.000 350.171 C 118.271 350.722,118.122 350.854,118.151 351.815 C 118.264 355.635,122.750 355.706,122.750 351.887 C 122.750 349.962,122.043 349.521,120.000 350.171 M277.614 350.102 C 275.863 351.383,277.842 355.612,279.735 354.633 C 282.892 353.000,281.876 349.750,278.208 349.750 C 278.146 349.750,277.879 349.908,277.614 350.102 M214.556 351.889 C 213.792 352.424,214.129 354.979,215.340 357.843 C 216.297 360.104,215.221 362.471,213.058 362.867 C 211.543 363.143,211.053 363.641,209.888 366.085 C 208.615 368.755,208.176 369.089,205.413 369.481 C 202.641 369.875,201.503 371.027,201.501 373.440 C 201.497 378.540,206.646 380.055,210.046 375.955 C 211.901 373.718,212.665 373.121,214.435 372.526 C 218.230 371.251,218.720 370.740,219.492 367.250 C 220.182 364.127,220.979 361.005,221.309 360.125 C 221.464 359.712,221.796 359.107,222.046 358.779 C 224.347 355.759,217.726 349.669,214.556 351.889 M207.007 353.438 C 206.311 353.788,206.101 354.073,205.946 354.875 C 205.567 356.832,205.471 357.042,204.466 358.133 C 203.057 359.661,202.486 359.714,199.000 358.639 C 194.847 357.357,194.632 357.393,193.898 359.502 C 192.380 363.862,194.148 366.967,198.310 367.251 C 199.715 367.347,200.940 367.574,201.425 367.829 C 203.477 368.908,205.744 367.545,208.718 363.445 C 209.836 361.903,210.376 361.500,211.325 361.500 C 212.780 361.500,213.599 360.104,213.552 357.703 C 213.488 354.443,209.793 352.035,207.007 353.438 M188.994 362.222 C 187.937 362.646,184.278 365.067,183.594 365.794 C 181.832 367.670,182.072 368.231,185.846 371.048 C 192.506 376.017,196.901 376.592,198.864 372.750 C 200.213 370.109,199.445 369.099,196.421 369.536 C 193.506 369.958,193.425 369.906,192.620 367.125 C 191.572 363.507,190.250 361.718,188.994 362.222 " stroke="none" fill="#f3f3f3" fill-rule="evenodd"></path><path id="path1" d="M0.000 200.000 L 0.000 400.000 200.000 400.000 L 400.000 400.000 400.000 200.000 L 400.000 0.000 200.000 0.000 L 0.000 0.000 0.000 200.000 M207.875 23.846 C 209.134 24.441,209.814 25.070,211.106 26.834 C 211.974 28.019,212.923 28.617,214.929 29.243 C 217.912 30.175,218.668 30.989,219.458 34.125 C 219.597 34.675,219.832 35.588,219.980 36.154 C 220.129 36.720,220.250 37.409,220.250 37.685 C 220.250 38.482,221.471 42.008,222.010 42.764 C 223.818 45.303,220.081 50.035,216.214 50.104 C 213.721 50.149,213.471 48.367,215.344 43.907 C 216.384 41.430,215.217 39.042,212.765 38.628 C 211.544 38.421,211.120 37.952,209.870 35.422 C 208.737 33.127,207.744 32.251,206.276 32.249 C 203.277 32.244,201.500 30.664,201.500 28.002 C 201.500 24.328,204.608 22.301,207.875 23.846 M197.072 26.934 C 198.487 27.760,199.671 30.105,199.340 31.424 C 199.140 32.221,198.303 32.373,196.143 32.003 C 193.715 31.588,193.445 31.752,192.767 34.057 C 191.040 39.924,190.198 40.384,186.130 37.688 C 181.575 34.668,181.469 33.806,185.302 30.966 C 191.493 26.380,194.411 25.380,197.072 26.934 M205.408 34.513 C 206.114 35.041,207.394 36.407,208.252 37.549 C 210.006 39.885,210.096 39.957,211.553 40.206 C 215.047 40.802,213.715 47.594,209.958 48.346 C 207.334 48.871,206.247 48.242,205.760 45.919 C 205.038 42.467,203.125 41.651,198.915 43.000 C 195.288 44.162,194.660 44.080,194.018 42.366 C 192.384 37.999,194.089 34.518,197.875 34.488 C 199.109 34.478,200.067 34.298,201.125 33.877 C 202.981 33.138,203.714 33.247,205.408 34.513 M179.692 34.887 C 181.779 35.759,182.376 36.810,182.603 40.013 L 182.773 42.401 181.909 43.836 C 180.141 46.771,180.137 48.361,181.889 51.305 C 184.275 55.315,183.249 57.502,178.984 57.499 C 176.108 57.497,175.329 56.676,174.991 53.288 C 174.859 51.964,174.530 50.543,174.143 49.625 C 173.109 47.167,173.280 45.762,174.917 43.296 C 175.910 41.799,175.928 41.356,175.119 38.450 C 174.259 35.365,176.555 33.576,179.692 34.887 M249.087 42.692 C 246.308 48.674,244.239 53.922,241.840 61.072 C 240.420 65.305,239.134 68.999,238.984 69.281 C 238.307 70.546,239.246 69.860,242.317 66.846 C 246.821 62.427,252.723 58.000,254.111 58.000 C 254.612 58.000,254.641 57.875,253.609 60.156 C 250.047 68.028,248.396 70.138,244.309 72.046 C 243.108 72.606,240.887 73.649,239.375 74.364 L 236.625 75.663 235.813 77.284 C 235.366 78.175,235.000 78.995,235.000 79.105 C 235.000 79.315,235.089 79.296,237.875 78.490 C 239.874 77.912,246.807 77.568,249.344 77.921 L 250.814 78.125 249.687 79.481 C 245.229 84.846,239.467 86.544,234.419 83.979 C 232.708 83.109,232.877 83.014,231.486 85.625 C 230.900 86.725,230.213 87.924,229.960 88.289 C 229.707 88.654,229.500 89.075,229.500 89.226 C 229.500 89.377,229.387 89.500,229.250 89.500 C 229.113 89.500,229.000 89.643,229.000 89.817 C 229.000 89.991,228.719 90.548,228.375 91.054 C 227.481 92.370,227.501 92.384,230.185 92.286 C 232.578 92.199,234.142 92.411,236.625 93.161 C 239.571 94.049,239.660 94.153,238.559 95.397 C 236.737 97.454,233.581 98.602,229.814 98.578 C 227.355 98.563,226.527 98.394,224.865 97.570 C 223.564 96.925,223.259 97.171,220.857 100.814 C 218.192 104.857,215.766 107.978,215.280 107.991 C 215.005 107.998,214.959 107.616,215.054 106.136 C 215.189 104.038,215.089 104.211,218.742 99.750 C 219.925 98.306,221.837 95.606,222.991 93.750 C 224.145 91.894,225.557 89.644,226.127 88.750 C 227.562 86.501,231.668 79.605,233.242 76.800 C 234.507 74.545,234.541 74.431,234.382 73.050 C 234.017 69.890,235.929 60.958,237.925 56.500 C 240.479 50.794,243.158 46.877,247.709 42.197 C 250.316 39.516,250.527 39.592,249.087 42.692 M189.232 40.987 C 191.115 42.328,191.671 44.140,191.088 47.034 C 190.428 50.309,193.266 55.750,195.634 55.750 C 196.382 55.750,196.496 56.143,196.119 57.419 C 194.663 62.341,188.149 62.186,187.799 57.222 C 187.674 55.444,187.349 54.834,185.483 52.875 C 182.895 50.156,182.508 47.807,184.322 45.816 C 184.775 45.318,184.799 45.149,184.541 44.287 C 183.536 40.934,186.364 38.945,189.232 40.987 M151.845 44.025 C 158.948 50.815,162.019 55.959,165.005 66.069 C 165.843 68.909,166.228 71.222,166.242 73.499 C 166.249 74.701,172.297 84.743,173.771 86.000 C 173.852 86.069,175.300 88.094,176.990 90.500 C 180.638 95.694,181.397 96.643,184.718 100.165 C 186.620 102.182,187.250 103.015,187.250 103.515 C 187.250 103.881,187.322 104.702,187.409 105.340 C 187.537 106.275,187.495 106.500,187.193 106.500 C 186.704 106.500,183.792 103.257,181.828 100.526 C 180.977 99.343,179.825 97.895,179.268 97.309 L 178.255 96.243 176.935 96.988 C 172.791 99.326,166.807 98.760,163.400 95.707 C 162.080 94.525,162.257 94.334,165.750 93.164 C 168.781 92.149,171.406 91.663,172.620 91.891 C 174.089 92.166,173.994 91.853,171.404 87.899 C 170.013 85.774,168.746 83.831,168.589 83.581 C 168.338 83.182,168.233 83.167,167.742 83.461 C 164.835 85.203,163.494 85.581,160.662 85.457 C 157.288 85.309,154.980 84.159,151.631 80.958 C 150.809 80.172,150.217 79.449,150.316 79.351 C 151.095 78.571,160.481 78.249,163.603 78.894 C 166.123 79.416,166.153 79.386,165.002 77.500 C 163.911 75.712,164.053 75.790,157.250 73.242 C 152.082 71.306,150.753 69.985,146.992 63.037 C 144.809 59.005,144.843 58.944,148.292 60.739 C 152.405 62.880,155.446 65.120,160.088 69.424 C 161.898 71.103,161.979 71.034,160.915 68.722 C 160.447 67.706,158.972 64.119,157.636 60.750 C 156.030 56.697,154.074 52.402,151.854 48.054 C 147.612 39.742,147.612 39.979,151.845 44.025 M122.103 47.519 C 123.266 48.902,122.888 51.768,121.545 51.742 C 119.458 51.701,117.805 50.420,118.237 49.179 C 119.005 46.975,120.945 46.143,122.103 47.519 M280.326 47.256 C 281.714 48.348,282.230 50.576,281.188 50.977 C 278.290 52.092,277.000 51.750,277.000 49.864 C 277.000 47.329,278.712 45.987,280.326 47.256 M199.992 47.320 C 200.940 47.799,201.423 48.815,201.047 49.539 C 199.138 53.217,198.251 53.849,196.760 52.595 C 193.445 49.805,196.157 45.379,199.992 47.320 M106.750 50.646 C 108.713 51.484,111.181 53.083,112.875 54.616 L 114.125 55.748 113.250 56.524 C 103.096 65.536,100.579 66.204,92.000 62.164 C 90.969 61.679,89.577 61.135,88.907 60.956 C 87.209 60.502,87.225 60.388,89.405 57.254 C 92.442 52.891,94.882 50.912,98.000 50.282 C 98.756 50.130,99.600 49.953,99.875 49.890 C 101.356 49.549,105.160 49.967,106.750 50.646 M302.250 50.336 C 305.595 51.384,307.654 53.152,310.710 57.601 C 312.660 60.439,312.699 60.612,311.444 60.816 C 310.993 60.889,308.994 61.675,307.000 62.562 C 299.335 65.972,297.569 65.568,288.896 58.422 C 285.738 55.820,285.683 55.723,286.784 54.738 C 291.733 50.311,297.200 48.755,302.250 50.336 M212.414 50.660 C 214.277 51.544,214.773 52.880,214.231 55.550 C 213.771 57.816,213.356 58.456,211.900 59.146 C 210.944 59.598,210.470 60.007,210.170 60.636 C 209.575 61.884,208.382 62.565,207.125 62.374 C 203.487 61.822,202.920 61.937,200.211 63.777 C 196.759 66.121,195.750 65.942,195.750 62.984 C 195.750 60.459,196.261 59.581,198.287 58.629 C 199.551 58.035,200.513 57.240,203.006 54.727 C 207.327 50.371,209.670 49.358,212.414 50.660 M222.787 51.604 C 224.709 52.408,224.911 53.228,223.893 56.097 C 223.313 57.732,223.233 58.302,223.299 60.359 C 223.387 63.105,223.402 63.079,220.588 65.000 C 218.920 66.138,218.587 66.585,217.385 69.290 C 215.491 73.551,210.982 73.634,208.850 69.446 C 207.280 66.362,208.170 63.942,211.500 62.241 C 216.300 59.788,216.167 59.947,216.483 56.305 C 216.881 51.732,219.112 50.069,222.787 51.604 M117.607 59.387 C 121.606 67.699,119.862 77.167,113.318 82.671 C 110.626 84.935,107.128 85.999,107.624 84.403 C 108.419 81.843,108.311 80.206,107.186 77.750 C 105.068 73.129,105.230 70.605,107.924 66.283 C 108.999 64.559,112.146 60.569,113.373 59.375 C 116.263 56.563,116.248 56.563,117.607 59.387 M285.526 58.438 C 288.205 60.916,291.961 65.859,293.182 68.512 C 294.541 71.467,294.484 73.468,292.935 77.112 C 291.577 80.306,291.480 80.850,291.887 82.979 C 292.087 84.022,292.250 84.891,292.250 84.911 C 292.251 85.522,289.562 84.800,288.033 83.778 C 280.305 78.616,277.927 68.433,282.303 59.250 C 283.610 56.508,283.476 56.542,285.526 58.438 M126.408 57.873 C 131.360 59.163,135.120 62.761,136.399 67.433 C 137.216 70.416,137.292 70.917,137.181 72.559 C 137.028 74.824,136.697 75.211,135.659 74.334 C 134.162 73.071,133.100 72.761,130.236 72.755 C 127.303 72.749,126.174 72.295,124.680 70.520 C 122.412 67.825,118.923 58.871,119.752 57.873 C 120.172 57.366,124.461 57.366,126.408 57.873 M279.974 57.728 C 280.641 58.151,279.747 61.462,277.728 66.051 C 275.419 71.296,273.678 72.749,269.697 72.751 C 266.827 72.753,265.728 73.045,264.533 74.125 C 262.992 75.517,262.269 73.955,262.772 70.322 C 263.585 64.461,266.627 60.550,272.102 58.329 C 274.188 57.483,279.006 57.115,279.974 57.728 M185.581 60.943 C 187.907 63.154,188.779 63.584,191.718 63.967 C 193.577 64.210,193.884 64.325,194.468 65.003 C 196.823 67.738,196.914 67.757,200.111 66.125 C 202.658 64.825,204.004 64.663,205.098 65.523 C 207.640 67.523,206.523 74.186,203.510 74.997 C 202.966 75.144,202.453 75.373,202.371 75.507 C 202.167 75.836,200.758 75.814,199.761 75.466 C 198.811 75.135,196.621 75.550,195.375 76.298 C 193.647 77.335,191.632 76.544,190.452 74.367 C 189.284 72.214,188.435 71.637,185.710 71.147 C 182.388 70.549,181.563 69.955,179.949 67.000 C 178.759 64.822,178.810 62.711,180.100 60.789 C 181.741 58.345,182.881 58.376,185.581 60.943 M70.988 70.619 C 74.098 72.227,73.057 77.500,69.629 77.500 C 67.859 77.500,67.089 78.055,66.134 80.016 C 65.012 82.321,64.943 82.396,63.484 82.880 C 61.669 83.483,60.481 85.858,61.481 86.888 C 61.790 87.207,62.500 90.016,62.500 90.924 C 62.500 93.915,56.676 91.496,55.640 88.074 C 55.529 87.707,55.725 86.998,56.227 85.949 C 56.642 85.083,57.214 83.306,57.498 82.000 C 58.702 76.480,58.927 76.102,61.500 75.270 C 63.590 74.594,64.223 74.163,65.528 72.525 C 67.149 70.488,69.290 69.741,70.988 70.619 M332.075 71.152 C 332.515 71.374,333.663 72.375,334.625 73.378 C 336.209 75.028,336.545 75.254,338.172 75.755 C 340.642 76.517,341.203 77.286,342.002 81.000 C 342.628 83.905,343.080 85.419,343.676 86.597 C 344.707 88.638,343.551 90.966,340.883 92.220 C 337.347 93.882,336.394 92.075,338.345 87.407 C 339.131 85.529,338.444 84.209,336.248 83.379 C 334.922 82.877,334.841 82.792,333.875 80.867 C 332.767 78.659,331.918 78.001,330.175 78.000 C 328.173 78.000,327.000 76.752,327.000 74.625 C 327.000 71.693,329.605 69.910,332.075 71.152 M80.807 73.165 C 81.868 73.577,83.692 74.758,86.687 76.971 C 89.190 78.819,88.864 79.960,85.187 82.229 C 82.220 84.060,81.378 83.644,80.249 79.793 C 79.480 77.170,79.546 77.222,77.059 77.305 C 74.521 77.389,74.176 77.133,74.727 75.574 C 75.613 73.062,78.055 72.095,80.807 73.165 M323.198 73.748 C 324.394 74.291,325.349 75.933,325.203 77.197 L 325.125 77.875 322.977 77.875 C 320.754 77.875,320.004 78.150,319.996 78.968 C 319.987 80.043,318.958 82.336,318.048 83.313 C 317.168 84.255,316.928 84.205,314.368 82.550 C 310.821 80.255,310.670 79.404,313.438 77.298 C 318.518 73.431,320.728 72.627,323.198 73.748 M73.032 78.847 C 73.496 79.039,74.696 79.276,75.700 79.374 C 78.514 79.650,79.892 81.488,79.428 84.344 C 78.978 87.117,78.257 87.441,74.900 86.375 C 71.418 85.270,69.250 86.412,69.250 89.349 C 69.250 90.196,68.162 91.000,67.015 91.000 C 63.161 91.000,61.276 84.932,64.851 84.032 C 65.828 83.786,66.160 83.506,67.424 81.860 C 69.690 78.908,71.205 78.094,73.032 78.847 M329.375 79.392 C 330.307 79.834,331.495 81.046,332.863 82.949 C 333.586 83.956,334.022 84.308,334.833 84.540 C 338.891 85.699,336.556 92.102,332.326 91.415 C 331.101 91.217,330.816 90.898,330.499 89.372 C 329.914 86.552,328.331 85.838,325.000 86.890 C 321.476 88.003,320.501 87.388,320.500 84.053 C 320.500 81.092,321.324 80.153,324.125 79.926 C 325.087 79.848,326.269 79.612,326.750 79.402 C 327.872 78.912,328.359 78.910,329.375 79.392 M94.019 80.231 C 94.860 81.071,94.882 81.235,94.378 82.898 C 93.824 84.725,93.907 85.508,94.801 86.889 C 95.807 88.442,95.895 90.432,95.042 92.333 C 94.713 93.068,94.500 94.048,94.499 94.833 C 94.497 97.331,93.258 98.411,90.691 98.153 C 87.324 97.814,87.039 96.503,89.408 92.250 C 90.234 90.767,90.087 89.280,88.904 87.127 C 88.138 85.733,88.065 85.447,88.264 84.590 C 88.387 84.059,88.491 83.162,88.494 82.596 C 88.509 80.016,92.217 78.429,94.019 80.231 M310.013 80.759 C 311.775 82.014,312.179 85.355,310.871 87.865 C 310.423 88.725,309.977 89.895,309.881 90.464 C 309.700 91.538,309.658 91.428,311.458 94.570 C 312.633 96.620,311.919 98.246,309.644 98.703 C 306.997 99.235,305.555 98.197,305.333 95.601 C 305.263 94.789,304.921 93.281,304.571 92.250 C 303.841 90.095,303.984 88.894,305.151 87.363 C 305.854 86.442,306.004 84.937,305.519 83.671 C 304.382 80.698,307.285 78.816,310.013 80.759 M269.511 85.125 C 271.241 86.963,272.938 88.853,273.509 89.580 C 275.468 92.070,276.420 96.772,275.685 100.326 C 275.453 101.447,275.345 102.436,275.444 102.525 C 275.544 102.613,277.087 103.448,278.875 104.380 C 280.663 105.312,282.238 106.159,282.375 106.263 C 282.512 106.366,283.806 106.972,285.250 107.610 C 291.130 110.208,293.002 111.422,297.697 115.687 C 299.111 116.972,301.205 118.627,302.350 119.366 C 304.868 120.990,305.264 121.780,304.401 123.451 C 303.409 125.369,302.273 125.411,301.138 123.570 C 299.827 121.447,297.527 118.804,295.679 117.299 C 293.737 115.719,289.430 112.548,288.620 112.103 C 288.348 111.953,287.619 111.552,287.000 111.213 C 285.509 110.394,283.015 109.402,282.854 109.563 C 282.783 109.633,282.691 110.486,282.649 111.457 C 282.478 115.371,280.092 117.965,274.794 119.997 C 272.925 120.714,272.904 120.676,273.081 117.025 C 273.323 112.038,274.984 108.344,277.320 107.603 C 278.252 107.307,276.950 106.362,273.844 105.078 C 268.481 102.861,259.953 102.215,253.000 103.499 C 248.415 104.345,247.645 104.326,247.550 103.361 C 247.371 101.528,247.651 101.339,250.793 101.164 C 252.350 101.078,254.637 100.895,255.875 100.758 C 258.626 100.454,263.088 100.638,266.184 101.183 C 268.899 101.662,269.086 101.574,267.997 100.334 C 264.203 96.013,263.820 89.085,267.098 84.081 C 267.693 83.173,267.660 83.159,269.511 85.125 M133.124 84.688 C 135.910 89.650,135.589 94.995,132.210 99.929 C 131.564 100.872,131.423 100.958,130.871 100.748 C 130.237 100.508,129.500 100.646,129.500 101.006 C 129.500 101.868,130.517 102.351,131.137 101.783 C 131.993 101.000,140.115 100.356,144.000 100.762 C 145.306 100.899,147.556 101.078,149.000 101.161 C 152.095 101.337,152.250 101.428,152.250 103.056 L 152.250 104.300 151.188 104.188 C 150.603 104.126,148.662 103.816,146.875 103.500 C 138.541 102.023,129.641 103.056,123.656 106.194 C 122.001 107.061,121.956 107.109,122.444 107.485 C 122.722 107.699,123.349 108.185,123.838 108.563 C 125.722 110.024,126.836 113.697,126.700 118.000 C 126.610 120.866,126.648 120.855,123.028 119.096 C 118.976 117.127,117.460 115.136,117.294 111.563 C 117.242 110.428,117.134 109.500,117.055 109.500 C 115.253 109.500,107.291 114.398,103.551 117.807 C 101.886 119.324,99.939 121.593,98.860 123.276 C 97.363 125.607,96.600 125.657,95.497 123.493 C 94.533 121.605,94.828 121.104,98.250 118.812 C 99.281 118.122,101.134 116.632,102.367 115.501 C 106.032 112.141,108.496 110.410,111.625 109.001 C 114.123 107.876,123.788 103.028,124.332 102.627 C 124.724 102.339,124.745 102.207,124.477 101.708 C 124.033 100.882,123.876 96.302,124.229 94.507 C 124.805 91.577,125.774 90.021,129.500 86.040 C 132.239 83.114,132.241 83.114,133.124 84.688 M86.421 84.794 C 87.047 85.382,87.160 86.297,86.742 87.396 C 86.525 87.967,86.585 88.221,87.117 88.988 C 88.233 90.599,87.876 92.467,86.089 94.361 C 84.511 96.035,84.000 96.973,84.000 98.199 C 84.000 100.601,81.426 101.943,79.209 100.697 C 77.474 99.722,76.400 96.979,77.682 96.796 C 79.335 96.561,81.915 92.191,81.488 90.351 C 81.364 89.814,81.259 88.730,81.256 87.942 C 81.244 85.097,84.580 83.064,86.421 84.794 M316.813 85.246 C 318.035 85.968,318.833 87.510,318.664 88.827 C 318.163 92.729,318.144 92.511,319.124 94.125 C 320.288 96.041,320.927 96.730,321.938 97.161 C 323.697 97.910,321.998 101.196,319.619 101.643 C 317.617 102.018,316.144 100.827,315.775 98.534 C 315.514 96.917,315.076 96.125,313.750 94.875 C 311.962 93.190,311.551 91.231,312.646 89.618 C 313.114 88.928,313.248 88.488,313.131 88.020 C 312.676 86.201,312.689 86.038,313.337 85.390 C 314.136 84.591,315.600 84.531,316.813 85.246 M76.992 89.871 C 78.557 90.680,78.089 93.674,76.248 94.626 C 75.158 95.190,72.652 91.867,73.281 90.691 C 73.833 89.661,75.762 89.235,76.992 89.871 M325.915 90.628 C 327.095 91.401,327.030 91.744,325.170 94.561 C 324.312 95.862,322.720 95.047,321.974 92.923 C 321.193 90.702,323.753 89.212,325.915 90.628 M67.812 92.782 C 68.385 93.074,70.044 94.460,71.498 95.862 C 72.952 97.263,74.756 98.740,75.506 99.143 C 77.455 100.189,78.382 102.623,77.401 104.120 C 76.819 105.009,76.456 104.930,73.825 103.338 L 71.492 101.927 69.542 102.077 C 67.069 102.268,66.775 102.180,65.935 101.005 C 65.556 100.474,64.831 99.833,64.323 99.582 C 62.557 98.706,61.616 95.123,62.769 93.658 C 63.896 92.224,66.003 91.859,67.812 92.782 M335.917 93.234 C 338.247 94.292,337.994 99.098,335.558 100.073 C 334.930 100.324,334.352 100.805,334.006 101.365 C 333.214 102.646,332.782 102.798,330.431 102.617 C 328.382 102.459,328.370 102.462,326.875 103.384 C 323.480 105.478,322.975 105.638,322.509 104.766 C 321.583 103.036,322.491 100.642,324.458 99.624 C 325.377 99.149,326.814 97.953,328.548 96.221 C 331.994 92.779,333.537 92.153,335.917 93.234 M59.480 93.688 C 60.141 94.227,60.743 96.406,60.747 98.274 C 60.751 99.988,60.911 100.155,64.207 101.875 C 67.903 103.803,68.603 106.415,66.146 109.108 C 63.868 111.604,61.256 110.935,59.666 107.448 C 58.832 105.620,58.158 104.878,56.019 103.440 L 55.000 102.755 55.000 100.302 C 55.000 98.954,54.907 97.743,54.793 97.612 C 54.385 97.143,53.938 95.282,54.089 94.680 C 54.417 93.373,58.234 92.670,59.480 93.688 M344.750 94.188 C 345.864 94.744,345.997 95.693,345.241 97.692 C 344.800 98.859,344.727 99.436,344.850 100.800 C 345.045 102.963,344.826 103.391,342.849 104.696 C 341.351 105.687,341.155 105.925,340.263 107.847 C 338.355 111.959,334.485 112.268,332.885 108.436 C 331.759 105.742,332.580 103.969,335.680 102.404 C 337.726 101.371,338.997 100.471,339.002 100.053 C 339.018 98.705,339.609 95.247,339.899 94.803 C 340.624 93.697,343.131 93.379,344.750 94.188 M89.596 100.022 C 92.906 102.625,90.713 108.488,86.098 109.376 C 83.432 109.889,83.116 110.078,82.014 111.823 C 80.673 113.946,79.622 114.413,77.913 113.647 C 76.084 112.826,75.285 112.695,74.046 113.012 C 71.233 113.733,68.776 111.288,68.759 107.750 C 68.742 104.289,70.568 103.553,74.358 105.491 C 76.334 106.502,76.633 106.462,77.976 105.001 C 79.098 103.782,79.170 103.747,81.069 103.507 C 83.434 103.207,83.652 103.096,85.785 101.092 C 87.670 99.321,88.433 99.107,89.596 100.022 M313.965 101.592 C 316.092 103.590,316.292 103.693,318.672 104.016 C 320.565 104.272,320.660 104.318,321.774 105.515 C 323.157 107.003,323.473 107.031,325.819 105.875 C 329.650 103.988,331.312 105.078,330.935 109.230 C 330.644 112.437,328.584 114.131,325.722 113.517 C 324.404 113.235,322.242 113.656,321.863 114.269 C 321.270 115.229,319.017 114.266,318.024 112.627 C 316.967 110.884,316.608 110.587,315.122 110.230 C 310.973 109.233,310.457 108.887,309.231 106.279 C 308.266 104.225,308.840 101.429,310.430 100.444 C 311.612 99.711,312.147 99.885,313.965 101.592 M371.523 111.239 C 372.809 111.874,376.250 113.951,376.250 114.092 C 376.250 114.111,374.764 115.682,372.948 117.584 C 368.654 122.082,367.590 122.638,364.073 122.226 C 361.953 121.977,357.143 120.891,355.963 120.395 L 355.226 120.085 356.288 118.015 C 359.627 111.502,366.169 108.593,371.523 111.239 M33.625 110.998 C 37.159 111.576,43.216 116.807,43.248 119.309 C 43.251 119.574,41.840 120.143,38.000 121.426 C 31.935 123.451,30.476 123.157,25.901 118.986 C 24.545 117.750,23.112 116.508,22.718 116.227 C 21.741 115.532,21.730 115.552,24.063 113.833 C 28.058 110.887,29.797 110.372,33.625 110.998 M50.376 112.251 C 51.181 113.140,49.802 114.861,48.641 114.416 C 48.017 114.176,48.130 112.612,48.806 112.139 C 49.537 111.627,49.830 111.648,50.376 112.251 M46.706 112.825 C 46.827 113.461,46.080 114.500,45.503 114.500 C 44.633 114.500,44.394 113.409,45.075 112.550 C 45.443 112.084,46.603 112.280,46.706 112.825 M349.500 113.750 C 350.097 114.347,350.143 115.071,349.618 115.597 C 348.969 116.245,347.500 115.379,347.500 114.349 C 347.500 113.304,348.696 112.946,349.500 113.750 M353.043 113.664 C 353.543 114.116,353.656 115.124,353.236 115.384 C 352.798 115.654,351.782 115.278,351.493 114.738 C 350.860 113.554,352.028 112.745,353.043 113.664 M48.769 115.981 C 49.668 116.879,49.676 117.110,48.838 117.887 C 47.188 119.416,44.896 117.652,46.268 115.909 C 46.956 115.034,47.848 115.059,48.769 115.981 M352.232 117.159 C 353.621 118.924,351.174 120.640,349.469 119.097 C 348.820 118.510,348.880 118.081,349.731 117.231 C 350.652 116.309,351.544 116.284,352.232 117.159 M45.071 121.875 C 45.450 123.102,45.420 128.713,45.027 130.125 C 43.536 135.476,40.266 138.924,35.531 140.137 C 32.547 140.901,31.668 140.389,32.647 138.457 C 33.301 137.166,33.309 137.089,33.136 133.826 C 32.876 128.926,33.962 127.071,39.000 123.803 C 43.242 121.051,44.676 120.596,45.071 121.875 M356.250 122.397 C 363.701 124.980,366.750 128.344,366.750 133.983 C 366.751 136.125,366.842 136.791,367.234 137.500 C 368.535 139.859,368.551 139.679,367.015 140.025 C 366.288 140.188,365.481 140.148,364.237 139.889 C 357.660 138.518,353.750 133.071,353.750 125.279 C 353.750 121.630,353.817 121.554,356.250 122.397 M48.301 122.725 C 48.617 122.849,49.342 123.075,49.913 123.228 C 52.181 123.835,55.137 126.456,56.631 129.186 C 58.209 132.068,58.245 138.087,56.696 139.751 L 56.196 140.287 55.551 139.331 C 54.700 138.069,54.436 137.883,52.375 137.098 C 48.277 135.538,47.001 132.769,47.000 125.438 C 47.000 122.287,47.029 122.227,48.301 122.725 M352.208 125.813 C 353.139 132.573,351.658 136.799,347.673 138.759 C 346.196 139.484,345.721 139.875,345.015 140.942 C 343.984 142.499,343.611 142.350,342.725 140.028 C 342.131 138.468,341.924 133.542,342.407 132.449 C 344.144 128.525,346.397 125.923,349.250 124.547 C 351.777 123.328,351.872 123.368,352.208 125.813 M223.250 199.125 L 223.250 220.000 221.250 220.000 L 219.250 220.000 219.250 199.125 L 219.250 178.250 221.250 178.250 L 223.250 178.250 223.250 199.125 M315.744 178.781 C 333.509 181.563,337.256 209.316,321.018 217.848 C 315.459 220.769,307.058 220.711,301.814 217.714 C 286.974 209.234,289.100 184.435,305.102 179.360 C 308.254 178.361,311.822 178.166,315.744 178.781 M85.020 194.247 C 88.790 202.496,91.974 209.252,92.095 209.262 C 92.216 209.271,95.259 202.550,98.858 194.327 L 105.400 179.375 111.450 179.308 L 117.500 179.241 117.500 179.838 C 117.500 180.382,117.367 180.450,116.022 180.603 C 112.135 181.042,112.229 180.557,112.310 199.875 C 112.388 218.425,112.171 217.439,116.278 217.925 C 117.355 218.052,117.500 218.140,117.500 218.660 L 117.500 219.250 108.983 219.250 L 100.465 219.250 100.545 218.690 C 100.612 218.221,100.838 218.100,101.942 217.941 C 106.107 217.345,105.864 218.431,105.930 200.125 L 105.985 184.875 105.294 186.375 C 104.913 187.200,101.457 194.936,97.614 203.567 C 91.716 216.808,90.551 219.248,90.154 219.192 C 89.791 219.140,87.952 215.333,82.154 202.625 L 74.625 186.125 74.556 198.500 C 74.454 216.570,74.647 217.406,79.017 217.924 C 80.105 218.052,80.250 218.139,80.250 218.660 L 80.250 219.250 73.125 219.250 L 66.000 219.250 66.000 218.660 C 66.000 218.135,66.144 218.053,67.306 217.915 C 71.940 217.366,71.875 217.640,71.875 198.625 C 71.875 180.050,72.086 180.960,67.688 180.561 C 66.380 180.442,66.250 180.377,66.250 179.840 L 66.250 179.250 72.208 179.250 L 78.166 179.250 85.020 194.247 M147.873 194.341 C 151.641 202.572,154.781 209.364,154.851 209.434 C 155.016 209.599,154.743 210.203,161.987 193.625 L 168.213 179.375 174.231 179.308 L 180.250 179.241 180.250 179.836 C 180.250 180.361,180.108 180.447,179.028 180.575 C 174.916 181.062,175.125 180.063,175.125 199.250 C 175.125 218.307,174.945 217.441,179.000 217.922 C 180.105 218.052,180.250 218.138,180.250 218.660 L 180.250 219.250 171.875 219.250 L 163.500 219.250 163.500 218.660 C 163.500 218.137,163.644 218.053,164.775 217.919 C 166.646 217.697,167.788 217.049,168.375 215.875 C 168.910 214.805,169.350 184.754,168.826 185.078 C 168.708 185.151,165.193 192.869,161.014 202.230 C 155.250 215.143,153.314 219.250,152.990 219.250 C 152.549 219.250,152.207 218.531,141.978 196.063 L 137.625 186.501 137.560 200.054 C 137.488 215.106,137.531 215.601,139.008 216.844 C 139.811 217.519,141.176 217.996,142.313 217.999 C 142.879 218.000,143.000 218.110,143.000 218.625 L 143.000 219.250 135.858 219.250 L 128.715 219.250 128.795 218.690 C 128.862 218.220,129.088 218.100,130.196 217.941 C 133.078 217.528,134.043 216.552,134.504 213.585 C 135.047 210.081,134.715 183.280,134.115 182.250 C 133.533 181.250,131.854 180.529,130.063 180.511 C 129.097 180.501,129.000 180.443,129.000 179.871 L 129.000 179.241 135.011 179.308 L 141.023 179.375 147.873 194.341 M279.500 179.839 C 279.500 180.382,279.372 180.440,277.864 180.580 C 273.601 180.979,273.875 179.706,273.875 199.081 C 273.875 218.544,273.661 217.527,277.847 217.918 C 279.373 218.060,279.500 218.118,279.500 218.661 L 279.500 219.250 270.625 219.250 L 261.750 219.250 261.750 218.625 C 261.750 218.071,261.856 217.999,262.688 217.994 C 267.639 217.962,267.556 218.302,267.454 198.500 C 267.359 180.096,267.562 180.958,263.242 180.566 C 261.879 180.442,261.750 180.380,261.750 179.840 L 261.750 179.250 270.625 179.250 L 279.500 179.250 279.500 179.839 M309.277 180.770 C 299.941 182.604,295.702 197.861,300.996 210.577 C 304.960 220.099,317.602 220.470,321.863 211.190 C 328.857 195.961,321.573 178.356,309.277 180.770 M344.738 260.221 C 345.177 261.282,346.165 262.110,348.069 263.015 C 351.572 264.679,353.106 269.356,352.226 275.686 C 351.912 277.940,351.757 278.098,350.393 277.556 C 346.752 276.113,343.672 272.906,342.478 269.317 C 341.238 265.586,343.383 256.950,344.738 260.221 M37.877 262.352 C 42.859 264.814,45.394 269.355,45.354 275.750 C 45.323 280.833,45.093 281.112,42.155 279.632 C 38.465 277.773,35.309 275.292,33.966 273.193 L 33.125 271.879 33.191 268.043 C 33.255 264.313,33.239 264.172,32.601 263.000 C 31.713 261.368,31.902 261.162,34.160 261.307 C 35.632 261.401,36.379 261.611,37.877 262.352 M57.256 262.938 C 59.512 268.924,55.879 276.353,49.648 278.493 C 46.946 279.421,47.000 279.471,47.000 276.046 C 47.000 269.572,48.437 265.952,51.442 264.857 C 54.165 263.864,54.719 263.537,55.390 262.522 C 56.292 261.159,56.613 261.231,57.256 262.938 M367.890 261.860 C 368.295 262.162,368.324 262.295,368.065 262.673 C 366.898 264.375,366.750 264.946,366.750 267.731 C 366.750 272.683,365.296 274.752,359.867 277.526 C 353.693 280.680,353.604 280.637,353.748 274.550 C 353.845 270.478,356.766 265.210,359.969 263.333 C 362.732 261.714,366.699 260.976,367.890 261.860 M97.639 276.691 C 97.785 276.792,98.516 277.768,99.264 278.860 C 102.658 283.810,109.553 289.162,115.824 291.715 C 117.149 292.255,117.250 292.153,117.250 290.271 C 117.250 286.561,119.416 283.961,124.204 281.922 C 126.786 280.823,126.750 280.795,126.750 283.960 C 126.750 288.988,125.298 292.535,122.679 293.907 C 121.611 294.466,122.386 295.044,126.250 296.572 C 131.443 298.626,140.234 299.372,146.125 298.258 C 146.813 298.128,148.050 297.893,148.875 297.736 C 149.700 297.579,150.697 297.391,151.090 297.318 C 151.932 297.162,152.241 297.522,152.246 298.667 C 152.253 300.005,152.046 300.250,150.911 300.251 C 150.341 300.251,148.131 300.431,146.000 300.651 C 140.099 301.258,133.219 300.819,131.046 299.697 C 130.344 299.334,129.625 299.691,129.625 300.402 C 129.625 300.776,129.808 300.875,130.500 300.875 C 133.415 300.875,135.971 308.706,134.598 313.429 C 134.154 314.957,132.883 317.579,132.386 317.991 C 131.838 318.446,126.434 312.614,125.279 310.320 C 124.066 307.912,123.596 302.920,124.348 300.423 C 124.607 299.561,124.623 299.207,124.411 299.033 C 124.088 298.769,115.181 294.264,111.292 292.398 C 108.070 290.852,106.005 289.398,102.364 286.110 C 100.777 284.676,98.603 282.942,97.534 282.256 C 96.464 281.570,95.439 280.727,95.254 280.383 C 94.467 278.913,96.441 275.858,97.639 276.691 M303.412 276.866 C 304.082 277.336,304.750 278.742,304.750 279.682 C 304.750 280.541,304.333 280.957,301.750 282.683 C 300.719 283.372,298.863 284.862,297.625 285.994 C 294.301 289.036,291.819 290.811,288.942 292.205 C 275.928 298.510,275.171 298.930,275.362 299.731 C 276.934 306.301,275.733 309.971,270.103 315.811 C 267.394 318.621,267.503 318.618,266.247 315.903 C 263.858 310.740,264.566 305.275,268.179 300.981 C 269.026 299.975,268.867 299.905,266.714 300.343 C 262.190 301.262,248.691 300.866,247.813 299.788 C 247.452 299.346,247.404 298.039,247.729 297.526 C 247.954 297.170,248.011 297.174,251.000 297.767 C 260.345 299.621,269.358 298.819,275.938 295.546 C 278.076 294.483,278.071 294.495,276.617 293.495 C 274.273 291.882,273.217 289.134,273.162 284.507 C 273.118 280.784,273.023 280.862,276.038 282.124 C 280.377 283.940,282.493 286.478,282.649 290.050 C 282.745 292.261,282.796 292.285,285.219 291.243 C 290.414 289.010,297.727 283.123,300.554 278.899 C 302.288 276.306,302.449 276.192,303.412 276.866 M36.368 279.630 C 39.191 280.448,42.528 281.719,42.986 282.150 C 43.457 282.594,41.083 286.180,39.192 287.880 C 35.785 290.943,30.855 291.712,27.143 289.759 C 24.747 288.499,21.352 285.752,22.188 285.750 C 22.291 285.749,23.781 284.501,25.500 282.976 C 30.321 278.698,31.693 278.275,36.368 279.630 M368.897 280.211 C 369.573 280.627,371.510 282.435,373.202 284.229 L 376.280 287.491 374.506 288.638 C 366.883 293.570,360.331 291.591,356.029 283.058 L 355.239 281.492 355.932 281.222 C 360.904 279.284,366.663 278.836,368.897 280.211 M351.919 282.313 C 352.701 283.181,352.777 283.416,352.485 284.057 C 351.852 285.447,350.421 285.471,349.422 284.108 C 348.831 283.301,349.072 282.581,350.082 282.138 C 351.181 281.657,351.343 281.672,351.919 282.313 M48.255 283.378 C 49.979 284.269,49.255 286.366,47.281 286.201 C 45.348 286.039,45.485 283.461,47.450 283.017 C 47.491 283.008,47.853 283.170,48.255 283.378 M349.893 286.357 C 350.121 287.266,349.795 287.979,349.070 288.161 C 348.236 288.370,347.645 287.992,347.548 287.186 C 347.397 285.929,349.591 285.153,349.893 286.357 M353.496 286.946 C 353.487 287.985,352.105 288.824,351.582 288.109 C 351.126 287.484,351.157 287.320,351.873 286.604 C 352.565 285.912,353.504 286.110,353.496 286.946 M46.203 287.510 C 46.847 288.110,46.923 289.130,46.340 289.354 C 45.876 289.532,44.766 288.899,44.720 288.432 C 44.663 287.842,44.802 287.374,45.087 287.191 C 45.508 286.922,45.601 286.949,46.203 287.510 M50.088 287.613 C 50.815 288.286,50.878 288.544,50.491 289.266 C 49.941 290.294,48.250 289.591,48.250 288.335 C 48.250 286.958,49.045 286.646,50.088 287.613 M322.201 287.556 C 323.161 288.011,323.763 288.105,325.500 288.070 C 329.544 287.990,330.875 289.287,330.875 293.306 C 330.875 296.760,329.233 297.613,325.997 295.840 C 323.622 294.539,322.612 294.574,321.884 295.982 C 321.372 296.973,320.777 297.262,318.715 297.521 C 316.556 297.792,315.932 298.120,314.086 299.955 C 312.424 301.607,311.787 301.916,310.947 301.482 C 308.061 299.988,307.967 295.889,310.752 293.067 C 311.545 292.264,312.464 291.889,314.375 291.588 C 316.156 291.307,317.101 290.618,317.984 288.957 C 318.950 287.138,320.342 286.675,322.201 287.556 M80.510 288.063 C 80.968 288.372,81.639 289.131,82.000 289.750 C 82.865 291.231,83.812 291.833,85.876 292.213 C 90.968 293.151,93.224 300.087,89.055 301.986 C 88.070 302.435,87.779 302.302,85.924 300.553 C 83.910 298.653,83.377 298.386,80.875 298.025 C 79.236 297.788,79.062 297.700,78.125 296.634 C 76.892 295.231,76.148 295.164,74.041 296.269 C 70.556 298.095,68.733 297.207,68.760 293.696 C 68.787 290.104,70.334 288.673,74.250 288.618 C 76.113 288.591,76.867 288.468,77.750 288.047 C 79.172 287.369,79.485 287.371,80.510 288.063 M338.377 290.961 C 339.027 291.357,340.500 293.762,340.500 294.427 C 340.500 294.890,342.108 296.545,343.001 297.000 C 344.679 297.856,345.038 298.555,344.856 300.605 C 344.726 302.062,344.791 302.618,345.224 303.750 C 346.295 306.552,345.365 308.000,342.493 308.000 C 340.316 308.000,339.580 307.055,339.245 303.829 C 338.944 300.923,338.952 300.933,335.718 299.233 C 332.905 297.754,332.500 297.253,332.500 295.254 C 332.500 291.822,335.817 289.399,338.377 290.961 M64.587 291.401 C 66.861 292.176,68.095 295.015,67.146 297.287 C 66.693 298.371,66.303 298.685,63.918 299.888 C 61.075 301.322,60.849 301.605,60.686 303.936 C 60.407 307.946,58.870 309.271,55.725 308.215 C 53.896 307.600,53.656 306.910,54.500 304.690 C 54.854 303.760,55.002 302.754,55.008 301.250 C 55.017 298.807,55.061 298.725,57.135 297.323 C 58.426 296.451,58.762 296.054,59.455 294.589 C 60.603 292.158,60.586 292.183,61.498 291.563 C 62.479 290.894,63.018 290.866,64.587 291.401 M217.483 295.994 C 218.576 297.365,220.098 299.541,220.867 300.828 C 221.635 302.116,222.596 303.488,223.002 303.877 L 223.740 304.584 224.807 304.063 C 227.062 302.963,231.067 302.594,233.232 303.285 C 236.514 304.333,239.507 306.345,239.196 307.293 C 238.915 308.149,234.002 309.284,230.563 309.289 C 229.016 309.291,227.750 309.334,227.750 309.385 C 227.750 309.436,228.071 310.023,228.464 310.690 C 229.416 312.303,230.363 313.987,231.570 316.208 C 232.723 318.330,232.893 318.441,234.030 317.806 C 238.856 315.112,244.343 316.440,249.003 321.430 C 250.950 323.515,250.930 323.455,249.729 323.610 C 245.184 324.198,239.892 323.861,236.631 322.776 C 234.736 322.147,234.710 322.190,235.756 324.203 C 236.726 326.069,236.007 325.610,243.875 329.380 C 248.577 331.633,250.114 333.527,253.490 341.220 C 254.667 343.903,254.660 343.969,253.277 343.264 C 249.950 341.567,246.053 338.535,242.213 334.655 C 238.623 331.029,238.474 330.963,239.398 333.399 C 239.758 334.348,240.987 337.938,242.130 341.375 C 244.179 347.543,246.271 352.845,248.702 358.031 C 250.859 362.636,250.788 362.676,247.222 358.867 C 241.335 352.577,237.844 346.563,236.127 339.750 C 235.902 338.856,235.617 337.731,235.493 337.250 C 234.610 333.812,234.428 332.598,234.392 329.875 C 234.345 326.378,234.518 326.811,230.424 319.967 C 224.359 309.827,220.785 304.225,219.181 302.343 C 218.463 301.500,217.706 300.596,217.500 300.335 C 217.294 300.074,216.684 299.315,216.144 298.648 C 215.227 297.513,215.156 297.309,215.050 295.468 C 214.901 292.907,215.049 292.939,217.483 295.994 M187.409 296.160 C 187.322 296.798,187.250 297.634,187.250 298.018 C 187.250 298.566,186.560 299.462,184.052 302.174 C 182.294 304.077,180.471 306.194,180.001 306.879 C 179.532 307.564,178.403 309.137,177.492 310.375 C 175.131 313.583,169.330 321.985,167.704 324.552 L 166.325 326.730 166.151 329.427 C 166.040 331.137,165.744 332.901,165.341 334.249 C 164.992 335.418,164.600 336.825,164.472 337.375 C 164.251 338.320,163.953 339.241,163.500 340.375 C 163.390 340.650,163.159 341.269,162.987 341.750 C 161.048 347.160,156.837 353.013,151.051 358.341 C 148.259 360.911,148.013 360.820,149.646 357.824 C 152.348 352.867,155.573 346.087,157.121 342.112 C 158.761 337.900,160.038 334.808,161.162 332.329 C 161.738 331.059,161.924 330.378,161.559 330.875 C 161.458 331.012,160.531 331.855,159.500 332.748 C 158.469 333.640,157.468 334.521,157.276 334.704 C 154.645 337.216,145.886 342.719,145.358 342.192 C 145.282 342.115,145.728 341.038,146.350 339.799 C 150.063 332.407,152.126 330.200,156.932 328.481 C 158.559 327.899,158.507 327.919,161.750 326.583 C 164.875 325.295,167.603 321.617,164.814 322.451 C 162.140 323.251,157.893 323.352,152.672 322.739 C 150.047 322.431,150.013 322.384,151.414 320.953 C 156.412 315.848,162.340 314.572,166.823 317.635 C 167.345 317.991,167.951 318.247,168.171 318.204 C 168.571 318.125,174.119 309.768,173.796 309.730 C 173.702 309.719,172.950 309.723,172.125 309.738 C 169.516 309.786,162.899 307.924,162.561 307.048 C 161.953 305.469,166.713 303.406,171.000 303.391 L 174.375 303.378 176.338 304.336 L 178.302 305.294 179.052 304.584 C 179.465 304.194,180.598 302.750,181.572 301.375 C 183.304 298.928,186.850 295.000,187.327 295.000 C 187.470 295.000,187.503 295.473,187.409 296.160 M326.137 297.786 L 328.241 299.072 330.285 298.932 C 332.734 298.764,333.264 298.933,333.997 300.120 C 334.325 300.650,334.950 301.197,335.506 301.437 C 337.984 302.511,338.236 307.405,335.864 308.396 C 333.623 309.332,331.571 308.485,328.496 305.353 C 326.395 303.213,325.028 302.135,323.675 301.551 C 322.803 301.175,322.250 299.916,322.250 298.308 C 322.250 296.078,323.145 295.958,326.137 297.786 M77.240 297.297 C 78.550 298.703,77.515 301.468,75.279 302.541 C 74.578 302.878,73.143 304.093,71.625 305.637 C 68.142 309.178,66.216 309.969,63.832 308.838 C 61.482 307.723,61.856 303.088,64.386 301.969 C 65.042 301.679,65.646 301.192,65.858 300.783 C 66.513 299.517,66.866 299.384,69.373 299.459 C 71.790 299.531,72.313 299.372,74.296 297.966 C 74.817 297.596,76.348 296.821,76.678 296.760 C 76.707 296.754,76.960 296.996,77.240 297.297 M320.945 300.558 C 322.587 301.543,323.220 303.744,322.038 304.355 C 319.945 305.437,318.077 308.483,318.343 310.380 C 318.429 310.996,318.569 311.986,318.653 312.581 C 319.033 315.275,316.194 317.760,314.020 316.635 C 312.941 316.078,312.571 315.217,312.954 314.157 C 313.364 313.024,313.336 312.829,312.625 311.897 C 311.472 310.386,311.900 308.766,314.103 306.297 C 315.486 304.747,315.598 304.514,315.850 302.646 C 316.179 300.208,318.665 299.189,320.945 300.558 M83.052 301.426 C 83.815 302.170,84.000 302.534,84.000 303.284 C 84.000 304.653,84.354 305.376,85.744 306.845 C 88.033 309.265,88.435 311.268,86.951 312.860 C 86.651 313.182,86.530 313.559,86.625 313.874 C 87.367 316.333,86.819 317.354,84.783 317.308 C 82.212 317.249,81.089 315.759,81.364 312.767 C 81.459 311.726,81.545 310.576,81.556 310.210 C 81.595 308.781,79.412 305.621,77.884 304.896 C 77.107 304.527,77.016 304.391,77.153 303.800 C 77.865 300.730,81.033 299.454,83.052 301.426 M309.965 302.906 C 312.054 303.323,312.550 305.205,311.175 307.500 C 309.499 310.300,309.491 311.981,311.140 314.481 C 311.941 315.693,311.686 319.120,310.717 320.173 C 308.155 322.960,303.821 321.137,305.509 317.983 C 306.023 317.023,305.857 315.312,305.147 314.238 C 303.912 312.372,303.833 310.763,304.876 308.673 C 305.082 308.261,305.250 307.335,305.250 306.617 C 305.250 303.545,306.853 302.283,309.965 302.906 M93.733 304.122 C 94.219 304.606,94.361 305.045,94.438 306.301 C 94.490 307.167,94.777 308.494,95.073 309.250 C 95.898 311.352,95.812 313.100,94.808 314.615 C 93.895 315.994,93.836 316.571,94.389 318.729 C 94.878 320.636,94.580 321.433,93.179 321.965 C 91.147 322.737,88.501 321.040,88.499 318.962 C 88.498 318.364,88.378 317.445,88.232 316.919 C 88.018 316.149,88.042 315.849,88.354 315.373 C 90.338 312.344,90.407 311.434,88.882 308.401 C 87.634 305.921,87.572 304.874,88.622 304.003 C 89.752 303.064,92.741 303.134,93.733 304.122 M325.137 306.912 C 325.474 307.275,325.753 307.697,325.756 307.849 C 325.759 308.001,325.981 308.406,326.250 308.750 C 327.326 310.125,326.255 311.506,324.125 311.491 C 321.675 311.474,321.007 308.591,323.054 306.868 C 323.988 306.082,324.376 306.090,325.137 306.912 M76.622 307.292 C 78.766 308.979,78.268 312.000,75.844 312.000 C 73.291 312.000,72.568 310.825,73.879 308.805 C 75.410 306.448,75.491 306.403,76.622 307.292 M340.690 309.307 C 343.660 310.701,344.779 312.839,343.660 314.979 C 343.305 315.657,342.848 316.923,342.644 317.793 C 342.439 318.663,342.090 320.163,341.868 321.125 C 341.070 324.576,340.637 325.079,337.625 326.038 C 336.214 326.488,335.450 327.059,334.377 328.465 C 332.144 331.394,329.021 331.652,327.547 329.031 C 326.045 326.358,327.622 323.503,330.601 323.501 C 332.067 323.500,333.393 322.340,333.987 320.539 C 334.384 319.337,335.350 318.250,336.022 318.250 C 337.961 318.250,339.175 316.078,338.345 314.093 C 336.444 309.547,337.334 307.730,340.690 309.307 M62.063 309.598 C 62.677 310.064,62.617 311.327,61.875 313.601 C 60.830 316.802,61.300 318.141,63.701 318.802 C 64.825 319.111,64.913 319.204,65.780 320.985 C 66.909 323.306,67.668 324.000,69.076 324.000 C 72.165 324.002,73.867 327.049,72.202 329.595 C 70.493 332.207,67.691 331.899,65.277 328.835 C 64.169 327.429,63.177 326.834,60.561 326.006 C 59.208 325.578,58.493 324.210,57.746 320.625 C 57.148 317.755,56.932 317.081,56.080 315.432 C 55.298 313.919,55.442 313.170,56.819 311.606 C 58.450 309.753,60.987 308.782,62.063 309.598 M334.700 310.601 C 337.485 312.050,337.758 317.000,335.052 317.000 C 334.429 317.000,333.665 317.691,331.884 319.864 C 329.910 322.275,328.291 322.975,326.659 322.123 C 326.254 321.912,325.276 321.748,324.409 321.746 C 321.625 321.740,320.500 320.576,320.500 317.703 C 320.500 314.112,321.287 313.546,324.757 314.642 C 328.474 315.816,329.804 315.232,330.501 312.119 C 330.908 310.306,332.810 309.618,334.700 310.601 M68.694 311.139 C 69.058 311.394,69.250 311.787,69.250 312.277 C 69.250 313.285,69.791 314.265,70.871 315.213 C 71.963 316.172,71.699 316.173,75.031 315.196 C 78.174 314.275,78.391 314.320,79.049 316.026 C 80.372 319.455,78.852 322.243,75.651 322.259 C 74.585 322.264,73.625 322.411,73.250 322.625 C 71.496 323.627,69.676 322.705,67.330 319.625 C 66.063 317.962,65.745 317.734,64.230 317.403 C 62.573 317.041,62.540 313.517,64.178 311.801 C 65.172 310.759,67.637 310.398,68.694 311.139 M111.433 317.555 C 119.486 322.425,122.072 333.437,117.346 342.740 C 116.280 344.838,116.237 344.845,114.447 343.250 C 107.252 336.837,104.132 329.181,106.856 324.625 C 107.999 322.713,108.403 320.233,107.894 318.247 C 107.677 317.402,107.500 316.647,107.500 316.570 C 107.500 316.144,110.229 316.828,111.433 317.555 M292.084 317.563 C 291.620 319.920,291.874 322.237,292.817 324.250 C 295.486 329.943,293.852 334.493,286.359 342.229 C 283.632 345.044,283.589 345.043,282.227 342.135 C 279.695 336.732,279.509 329.371,281.792 324.830 C 283.895 320.644,288.642 316.561,291.459 316.514 L 292.294 316.500 292.084 317.563 M318.130 318.154 C 318.772 318.846,319.704 321.070,319.934 322.455 C 320.132 323.653,320.840 324.031,322.297 323.718 C 325.084 323.119,326.120 324.475,324.555 326.673 C 322.661 329.333,319.356 328.744,314.097 324.810 C 310.754 322.310,310.771 320.872,314.165 319.133 C 314.693 318.862,315.517 318.384,315.996 318.071 C 317.106 317.343,317.388 317.354,318.130 318.154 M84.986 319.242 C 89.080 321.633,89.206 322.733,85.688 325.385 C 80.241 329.491,76.862 329.942,75.097 326.799 C 73.875 324.624,74.442 323.766,76.830 324.176 C 79.146 324.575,79.439 324.361,80.376 321.575 C 81.618 317.884,82.177 317.601,84.986 319.242 M195.549 325.335 C 196.259 326.045,198.916 326.409,200.385 325.997 C 201.371 325.721,201.605 325.744,202.616 326.219 C 203.237 326.511,203.897 326.750,204.084 326.750 C 204.971 326.750,206.263 329.441,206.441 331.661 C 206.831 336.520,204.632 337.748,199.848 335.342 C 197.347 334.084,196.611 334.033,195.804 335.060 C 194.148 337.170,193.712 337.438,191.618 337.630 C 188.967 337.875,187.753 338.488,185.634 340.657 C 183.274 343.071,182.210 343.240,180.592 341.461 C 177.545 338.112,179.868 331.471,184.343 330.739 C 188.253 330.098,188.896 329.751,190.258 327.544 C 191.719 325.177,194.309 324.095,195.549 325.335 M136.987 327.688 C 137.355 329.014,137.313 330.496,136.847 332.576 C 135.589 338.189,132.114 341.899,126.375 343.758 C 125.177 344.146,120.072 344.172,119.692 343.792 C 119.333 343.433,120.011 340.828,121.361 337.375 C 124.052 330.492,125.896 328.750,130.485 328.750 C 133.417 328.750,134.064 328.592,135.180 327.606 C 136.396 326.532,136.669 326.544,136.987 327.688 M264.804 327.688 C 266.101 328.619,266.126 328.626,269.117 328.759 C 272.616 328.915,273.511 329.243,274.976 330.907 C 276.989 333.194,280.250 340.913,280.250 343.391 C 280.250 344.463,274.896 344.379,271.941 343.260 C 265.981 341.003,261.637 333.905,262.756 328.250 C 262.878 327.631,262.983 327.041,262.989 326.938 C 263.011 326.558,263.530 326.772,264.804 327.688 M215.698 329.699 C 216.014 329.904,216.820 331.209,217.490 332.598 C 218.776 335.265,219.329 335.915,221.418 337.220 C 223.346 338.424,223.361 338.456,223.377 341.594 C 223.389 343.946,223.491 344.644,224.038 346.119 C 225.134 349.078,224.092 350.250,220.366 350.250 C 217.377 350.250,216.760 349.320,216.361 344.213 C 216.178 341.869,216.138 341.826,212.155 339.706 C 208.638 337.834,208.247 337.337,208.255 334.754 C 208.270 330.543,212.539 327.643,215.698 329.699 M198.443 336.813 C 199.020 337.122,200.309 337.845,201.308 338.419 C 203.395 339.619,203.720 339.684,206.197 339.404 C 208.489 339.144,209.132 339.396,210.156 340.958 C 210.738 341.845,211.193 342.234,211.940 342.480 C 213.827 343.103,215.197 347.427,214.150 349.453 C 212.415 352.806,208.131 351.960,203.552 347.361 C 200.588 344.383,199.274 343.330,197.697 342.671 C 196.214 342.052,195.292 339.655,195.752 337.616 C 196.092 336.110,196.761 335.911,198.443 336.813 M102.916 337.606 C 105.397 338.761,111.564 343.283,113.497 345.364 L 114.119 346.033 113.497 346.530 C 107.404 351.397,104.642 352.444,99.902 351.682 C 94.815 350.863,92.179 348.860,88.409 342.950 C 87.245 341.124,87.214 341.223,89.177 340.538 C 90.100 340.216,91.868 339.496,93.107 338.938 C 97.954 336.756,100.382 336.426,102.916 337.606 M303.017 337.401 C 303.764 337.622,305.444 338.304,306.750 338.917 C 308.056 339.531,309.856 340.278,310.750 340.577 C 311.644 340.877,312.417 341.146,312.468 341.175 C 312.599 341.250,309.980 345.099,308.657 346.774 C 304.408 352.157,297.200 353.460,291.070 349.952 C 289.010 348.774,286.000 346.368,286.000 345.901 C 286.000 345.561,286.185 345.387,289.125 342.972 C 296.043 337.287,298.838 336.167,303.017 337.401 M193.447 340.977 C 194.968 341.759,196.500 343.972,196.500 345.386 C 196.500 345.451,196.047 345.685,195.493 345.907 C 192.802 346.984,190.147 351.888,191.019 354.171 C 191.434 355.259,191.389 357.766,190.938 358.625 C 188.694 362.904,182.987 361.697,184.530 357.271 C 184.784 356.542,184.737 356.364,184.030 355.380 C 182.556 353.327,183.082 351.184,185.751 348.380 C 187.516 346.525,187.750 346.086,187.750 344.629 C 187.750 341.513,190.750 339.590,193.447 340.977 M181.056 344.296 C 183.447 345.013,183.811 346.903,182.127 349.858 C 180.047 353.508,180.133 355.964,182.433 358.556 C 182.727 358.887,182.775 359.291,182.642 360.306 C 182.547 361.031,182.481 362.105,182.495 362.691 C 182.556 365.224,180.758 366.875,177.938 366.875 C 175.076 366.875,174.252 365.567,175.244 362.601 C 175.963 360.453,175.887 359.867,174.621 357.761 C 173.268 355.512,173.176 354.408,174.141 351.985 C 174.523 351.027,174.868 349.502,174.994 348.220 C 175.354 344.541,177.417 343.206,181.056 344.296 M198.972 348.845 C 199.481 349.387,200.292 350.697,201.056 352.211 C 202.070 354.220,197.395 355.716,195.821 353.886 C 194.415 352.252,196.011 348.392,198.144 348.266 C 198.292 348.257,198.664 348.518,198.972 348.845 M122.250 350.250 C 123.263 351.263,122.692 354.249,121.390 354.744 C 120.094 355.237,118.201 353.525,118.151 351.815 C 118.122 350.854,118.271 350.722,120.000 350.171 C 121.551 349.677,121.682 349.682,122.250 350.250 M280.036 350.261 C 282.058 350.863,282.367 351.769,281.112 353.414 C 279.281 355.815,277.133 355.027,277.133 351.955 C 277.133 349.703,277.482 349.500,280.036 350.261 M218.032 351.854 C 221.451 353.291,223.514 356.851,222.046 358.779 C 221.796 359.107,221.464 359.712,221.309 360.125 C 220.979 361.005,220.182 364.127,219.492 367.250 C 218.720 370.740,218.230 371.251,214.435 372.526 C 212.665 373.121,211.901 373.718,210.046 375.955 C 206.646 380.055,201.497 378.540,201.501 373.440 C 201.503 371.027,202.641 369.875,205.413 369.481 C 208.176 369.089,208.615 368.755,209.888 366.085 C 211.053 363.641,211.543 363.143,213.058 362.867 C 215.221 362.471,216.297 360.104,215.340 357.843 C 214.872 356.736,214.000 353.411,214.000 352.733 C 214.000 351.622,216.292 351.123,218.032 351.854 M210.069 353.265 C 213.970 354.348,215.060 361.500,211.325 361.500 C 210.376 361.500,209.836 361.903,208.718 363.445 C 205.744 367.545,203.477 368.908,201.425 367.829 C 200.940 367.574,199.715 367.347,198.310 367.251 C 194.148 366.967,192.380 363.862,193.898 359.502 C 194.632 357.393,194.847 357.357,199.000 358.639 C 202.486 359.714,203.057 359.661,204.466 358.133 C 205.471 357.042,205.567 356.832,205.946 354.875 C 206.252 353.292,207.879 352.657,210.069 353.265 M190.580 362.718 C 191.148 363.206,192.049 365.154,192.620 367.125 C 193.425 369.906,193.506 369.958,196.421 369.536 C 199.445 369.099,200.213 370.109,198.864 372.750 C 196.901 376.592,192.506 376.017,185.846 371.048 C 181.376 367.711,181.461 366.744,186.494 363.669 C 189.461 361.857,189.555 361.835,190.580 362.718 " stroke="none" fill="#040404" fill-rule="evenodd"></path></g></svg>